<svg width="247" height="169" viewBox="0 0 247 169" fill="none" xmlns="http://www.w3.org/2000/svg">
<rect width="246.531" height="168.154" rx="13" fill="#58C84E"/>
<path d="M59.8297 95.3458C59.8297 95.3458 60.2557 86.9965 58.3335 83.3447C56.1672 79.2287 53.4532 78.9439 50.1045 79.3443C45.7398 79.8662 42.385 82.5139 40.6286 88.9452C38.7891 95.6813 41.4048 100.528 43.1223 107.347C44.7428 113.781 48.8577 122.549 48.8577 122.549L53.5956 121.748" stroke="black" stroke-width="6"/>
<path d="M88.9109 94.4961H52.9922V125.829H88.9109V94.4961Z" fill="white" stroke="black"/>
<path d="M85.0892 77.6829H64.4551V94.4959H85.0892V77.6829Z" fill="white" stroke="black"/>
<path d="M112.68 41L74.3906 77.6829H85.0056L112.68 45.3894H122.537L112.68 41Z" fill="black" stroke="black"/>
<mask id="path-6-inside-1" fill="white">
<path fill-rule="evenodd" clip-rule="evenodd" d="M157.204 126.502V115.246C153.99 114.467 150.967 113.198 148.22 111.522L140.258 119.483L129.671 108.895L137.632 100.934C135.956 98.1868 134.687 95.1641 133.908 91.9499H122.652V76.9773H133.908C134.687 73.7628 135.956 70.74 137.632 67.9924L129.671 60.0311L140.258 49.4438L148.22 57.4051C150.967 55.729 153.99 54.4597 157.204 53.6806V42.425H172.177V53.6803C175.391 54.4592 178.414 55.7286 181.162 57.4047L189.123 49.444L199.71 60.0312L191.749 67.9918C193.426 70.7396 194.695 73.7626 195.474 76.9773H206.729V91.9499H195.474C194.695 95.1643 193.426 98.1872 191.749 100.935L199.71 108.895L189.123 119.483L181.162 111.522C178.414 113.198 175.391 114.468 172.177 115.246V126.502H157.204ZM164.115 98.8603C172.384 98.8603 179.087 92.1569 179.087 83.8877C179.087 75.6186 172.384 68.9151 164.115 68.9151C155.845 68.9151 149.142 75.6186 149.142 83.8877C149.142 92.1569 155.845 98.8603 164.115 98.8603Z"/>
</mask>
<path fill-rule="evenodd" clip-rule="evenodd" d="M157.204 126.502V115.246C153.99 114.467 150.967 113.198 148.22 111.522L140.258 119.483L129.671 108.895L137.632 100.934C135.956 98.1868 134.687 95.1641 133.908 91.9499H122.652V76.9773H133.908C134.687 73.7628 135.956 70.74 137.632 67.9924L129.671 60.0311L140.258 49.4438L148.22 57.4051C150.967 55.729 153.99 54.4597 157.204 53.6806V42.425H172.177V53.6803C175.391 54.4592 178.414 55.7286 181.162 57.4047L189.123 49.444L199.71 60.0312L191.749 67.9918C193.426 70.7396 194.695 73.7626 195.474 76.9773H206.729V91.9499H195.474C194.695 95.1643 193.426 98.1872 191.749 100.935L199.71 108.895L189.123 119.483L181.162 111.522C178.414 113.198 175.391 114.468 172.177 115.246V126.502H157.204ZM164.115 98.8603C172.384 98.8603 179.087 92.1569 179.087 83.8877C179.087 75.6186 172.384 68.9151 164.115 68.9151C155.845 68.9151 149.142 75.6186 149.142 83.8877C149.142 92.1569 155.845 98.8603 164.115 98.8603Z" fill="white"/>
<path d="M157.204 115.246H158.204V114.46L157.44 114.274L157.204 115.246ZM157.204 126.502H156.204V127.502H157.204V126.502ZM148.22 111.522L148.74 110.668L148.069 110.258L147.512 110.815L148.22 111.522ZM140.258 119.483L139.551 120.19L140.258 120.897L140.966 120.19L140.258 119.483ZM129.671 108.895L128.964 108.188L128.257 108.895L128.964 109.603L129.671 108.895ZM137.632 100.934L138.34 101.641L138.896 101.085L138.486 100.413L137.632 100.934ZM133.908 91.9499L134.88 91.7143L134.695 90.9499H133.908V91.9499ZM122.652 91.9499H121.652V92.9499H122.652V91.9499ZM122.652 76.9773V75.9773H121.652V76.9773H122.652ZM133.908 76.9773V77.9773H134.695L134.88 77.2128L133.908 76.9773ZM137.632 67.9924L138.486 68.5132L138.896 67.8416L138.34 67.2853L137.632 67.9924ZM129.671 60.0311L128.964 59.324L128.257 60.0311L128.964 60.7382L129.671 60.0311ZM140.258 49.4438L140.966 48.7367L140.258 48.0296L139.551 48.7367L140.258 49.4438ZM148.22 57.4051L147.513 58.1122L148.069 58.6685L148.74 58.2588L148.22 57.4051ZM157.204 53.6806L157.44 54.6525L158.204 54.4672V53.6806H157.204ZM157.204 42.425V41.425H156.204V42.425H157.204ZM172.177 42.425H173.177V41.425H172.177V42.425ZM172.177 53.6803H171.177V54.4669L171.941 54.6522L172.177 53.6803ZM181.162 57.4047L180.641 58.2584L181.313 58.6681L181.869 58.1118L181.162 57.4047ZM189.123 49.444L189.83 48.7369L189.123 48.0298L188.416 48.7369L189.123 49.444ZM199.71 60.0312L200.417 60.7384L201.124 60.0312L200.417 59.3241L199.71 60.0312ZM191.749 67.9918L191.042 67.2847L190.486 67.841L190.896 68.5126L191.749 67.9918ZM195.474 76.9773L194.502 77.2128L194.687 77.9773H195.474V76.9773ZM206.729 76.9773H207.729V75.9773H206.729V76.9773ZM206.729 91.9499V92.9499H207.729V91.9499H206.729ZM195.474 91.9499V90.9499H194.687L194.502 91.7144L195.474 91.9499ZM191.749 100.935L190.896 100.414L190.486 101.086L191.042 101.642L191.749 100.935ZM199.71 108.895L200.417 109.602L201.124 108.895L200.417 108.188L199.71 108.895ZM189.123 119.483L188.416 120.19L189.123 120.897L189.83 120.19L189.123 119.483ZM181.162 111.522L181.869 110.815L181.313 110.259L180.641 110.668L181.162 111.522ZM172.177 115.246L171.941 114.275L171.177 114.46V115.246H172.177ZM172.177 126.502V127.502H173.177V126.502H172.177ZM156.204 115.246V126.502H158.204V115.246H156.204ZM147.699 112.375C150.533 114.104 153.652 115.414 156.969 116.218L157.44 114.274C154.328 113.52 151.401 112.291 148.74 110.668L147.699 112.375ZM140.966 120.19L148.927 112.229L147.512 110.815L139.551 118.776L140.966 120.19ZM128.964 109.603L139.551 120.19L140.966 118.776L130.378 108.188L128.964 109.603ZM136.925 100.227L128.964 108.188L130.378 109.603L138.34 101.641L136.925 100.227ZM132.936 92.1854C133.74 95.5021 135.05 98.6208 136.779 101.455L138.486 100.413C136.863 97.7528 135.634 94.8262 134.88 91.7143L132.936 92.1854ZM122.652 92.9499H133.908V90.9499H122.652V92.9499ZM121.652 76.9773V91.9499H123.652V76.9773H121.652ZM133.908 75.9773H122.652V77.9773H133.908V75.9773ZM136.779 67.4716C135.05 70.306 133.74 73.4249 132.936 76.7417L134.88 77.2128C135.634 74.1007 136.863 71.1739 138.486 68.5132L136.779 67.4716ZM128.964 60.7382L136.925 68.6995L138.34 67.2853L130.378 59.324L128.964 60.7382ZM139.551 48.7367L128.964 59.324L130.378 60.7382L140.966 50.1509L139.551 48.7367ZM148.927 56.698L140.966 48.7367L139.551 50.1509L147.513 58.1122L148.927 56.698ZM156.969 52.7088C153.652 53.5126 150.533 54.8224 147.699 56.5514L148.74 58.2588C151.401 56.6357 154.328 55.4067 157.44 54.6525L156.969 52.7088ZM156.204 42.425V53.6806H158.204V42.425H156.204ZM172.177 41.425H157.204V43.425H172.177V41.425ZM173.177 53.6803V42.425H171.177V53.6803H173.177ZM181.683 56.551C178.848 54.822 175.729 53.5122 172.412 52.7084L171.941 54.6522C175.053 55.4063 177.98 56.6353 180.641 58.2584L181.683 56.551ZM188.416 48.7369L180.455 56.6976L181.869 58.1118L189.83 50.1511L188.416 48.7369ZM200.417 59.3241L189.83 48.7369L188.416 50.1511L199.003 60.7384L200.417 59.3241ZM192.456 68.699L200.417 60.7384L199.003 59.3241L191.042 67.2847L192.456 68.699ZM196.446 76.7417C195.642 73.4247 194.332 70.3056 192.603 67.4711L190.896 68.5126C192.519 71.1735 193.748 74.1005 194.502 77.2128L196.446 76.7417ZM206.729 75.9773H195.474V77.9773H206.729V75.9773ZM207.729 91.9499V76.9773H205.729V91.9499H207.729ZM195.474 92.9499H206.729V90.9499H195.474V92.9499ZM192.603 101.456C194.332 98.6212 195.642 95.5023 196.446 92.1854L194.502 91.7144C193.748 94.8264 192.519 97.7532 190.896 100.414L192.603 101.456ZM200.417 108.188L192.456 100.228L191.042 101.642L199.003 109.602L200.417 108.188ZM189.83 120.19L200.417 109.602L199.003 108.188L188.416 118.775L189.83 120.19ZM180.455 112.229L188.416 120.19L189.83 118.775L181.869 110.815L180.455 112.229ZM172.412 116.218C175.729 115.415 178.848 114.105 181.683 112.376L180.641 110.668C177.98 112.291 175.053 113.52 171.941 114.275L172.412 116.218ZM173.177 126.502V115.246H171.177V126.502H173.177ZM157.204 127.502H172.177V125.502H157.204V127.502ZM178.087 83.8877C178.087 91.6046 171.832 97.8603 164.115 97.8603V99.8603C172.936 99.8603 180.087 92.7091 180.087 83.8877H178.087ZM164.115 69.9151C171.832 69.9151 178.087 76.1708 178.087 83.8877H180.087C180.087 75.0663 172.936 67.9151 164.115 67.9151V69.9151ZM150.142 83.8877C150.142 76.1708 156.398 69.9151 164.115 69.9151V67.9151C155.293 67.9151 148.142 75.0663 148.142 83.8877H150.142ZM164.115 97.8603C156.398 97.8603 150.142 91.6046 150.142 83.8877H148.142C148.142 92.7091 155.293 99.8603 164.115 99.8603V97.8603Z" fill="black" mask="url(#path-6-inside-1)"/>
</svg>
