<svg width="247" height="169" viewBox="0 0 247 169" fill="none" xmlns="http://www.w3.org/2000/svg">
<rect width="246.531" height="168.154" rx="13" fill="#58C84E"/>
<rect x="69.4586" y="57.4586" width="107.385" height="53.2341" fill="white" stroke="black" stroke-width="0.917241"/>
<mask id="path-3-inside-1" fill="white">
<path fill-rule="evenodd" clip-rule="evenodd" d="M173.568 68.1374C173.263 68.1811 172.95 68.2038 172.633 68.2038C169.024 68.2038 166.098 65.2777 166.098 61.6683C166.098 61.3512 166.12 61.0394 166.164 60.7344H80.1356C80.1793 61.0394 80.2018 61.3512 80.2018 61.6683C80.2018 65.2777 77.2758 68.2038 73.6663 68.2038C73.3499 68.2038 73.0388 68.1813 72.7344 68.1378V101.881C73.0388 101.837 73.3499 101.815 73.6663 101.815C76.9588 101.815 79.6827 104.249 80.1357 107.417H166.164C166.617 104.249 169.341 101.815 172.633 101.815C172.95 101.815 173.263 101.837 173.568 101.881V68.1374Z"/>
</mask>
<path fill-rule="evenodd" clip-rule="evenodd" d="M173.568 68.1374C173.263 68.1811 172.95 68.2038 172.633 68.2038C169.024 68.2038 166.098 65.2777 166.098 61.6683C166.098 61.3512 166.12 61.0394 166.164 60.7344H80.1356C80.1793 61.0394 80.2018 61.3512 80.2018 61.6683C80.2018 65.2777 77.2758 68.2038 73.6663 68.2038C73.3499 68.2038 73.0388 68.1813 72.7344 68.1378V101.881C73.0388 101.837 73.3499 101.815 73.6663 101.815C76.9588 101.815 79.6827 104.249 80.1357 107.417H166.164C166.617 104.249 169.341 101.815 172.633 101.815C172.95 101.815 173.263 101.837 173.568 101.881V68.1374Z" fill="white"/>
<path d="M173.568 68.1374H174.485V67.0795L173.438 67.2294L173.568 68.1374ZM166.164 60.7344L167.072 60.8643L167.222 59.8171H166.164V60.7344ZM80.1356 60.7344V59.8171H79.0778L79.2276 60.8643L80.1356 60.7344ZM72.7344 68.1378L72.864 67.2298L71.8171 67.0803V68.1378H72.7344ZM72.7344 101.881H71.8171V102.938L72.864 102.789L72.7344 101.881ZM80.1357 107.417L79.2277 107.546L79.3403 108.334H80.1357V107.417ZM166.164 107.417V108.334H166.959L167.072 107.546L166.164 107.417ZM173.568 101.881L173.438 102.789L174.485 102.939V101.881H173.568ZM172.633 69.121C172.994 69.121 173.35 69.0953 173.698 69.0454L173.438 67.2294C173.175 67.267 172.907 67.2865 172.633 67.2865V69.121ZM165.18 61.6683C165.18 65.7843 168.517 69.121 172.633 69.121V67.2865C169.53 67.2865 167.015 64.7711 167.015 61.6683H165.18ZM165.256 60.6045C165.206 60.9524 165.18 61.3076 165.18 61.6683H167.015C167.015 61.3948 167.034 61.1264 167.072 60.8643L165.256 60.6045ZM80.1356 61.6516H166.164V59.8171H80.1356V61.6516ZM81.1191 61.6683C81.1191 61.3076 81.0934 60.9524 81.0436 60.6045L79.2276 60.8643C79.2651 61.1264 79.2846 61.3948 79.2846 61.6683H81.1191ZM73.6663 69.121C77.7824 69.121 81.1191 65.7843 81.1191 61.6683H79.2846C79.2846 64.7711 76.7692 67.2865 73.6663 67.2865V69.121ZM72.6047 69.0458C72.9519 69.0954 73.3064 69.121 73.6663 69.121V67.2865C73.3934 67.2865 73.1256 67.2671 72.864 67.2298L72.6047 69.0458ZM73.6516 101.881V68.1378H71.8171V101.881H73.6516ZM72.864 102.789C73.1256 102.751 73.3934 102.732 73.6663 102.732V100.897C73.3064 100.897 72.9519 100.923 72.6047 100.973L72.864 102.789ZM73.6663 102.732C76.496 102.732 78.8384 104.825 79.2277 107.546L81.0437 107.287C80.527 103.674 77.4217 100.897 73.6663 100.897V102.732ZM166.164 106.499H80.1357V108.334H166.164V106.499ZM172.633 100.897C168.878 100.897 165.772 103.674 165.256 107.287L167.072 107.546C167.461 104.825 169.803 102.732 172.633 102.732V100.897ZM173.698 100.973C173.35 100.923 172.994 100.897 172.633 100.897V102.732C172.907 102.732 173.175 102.751 173.438 102.789L173.698 100.973ZM172.651 68.1374V101.881H174.485V68.1374H172.651Z" fill="black" mask="url(#path-3-inside-1)"/>
<circle cx="122.217" cy="84.0757" r="19.1479" stroke="black" stroke-width="0.917241"/>
</svg>
