<svg width="247" height="169" viewBox="0 0 247 169" fill="none" xmlns="http://www.w3.org/2000/svg">
<rect width="246.531" height="168.154" rx="13" fill="#58C84E"/>
<mask id="path-2-inside-1" fill="white">
<path fill-rule="evenodd" clip-rule="evenodd" d="M84.2734 63.1125C75.9892 63.1125 69.2734 69.8283 69.2734 78.1126V127.206C69.2734 135.49 75.9892 142.206 84.2734 142.206H162.283C170.567 142.206 177.283 135.49 177.283 127.206V78.1125C177.283 69.8283 170.567 63.1125 162.283 63.1125H84.2734ZM157.851 78.3812C153.859 78.3812 150.622 81.6177 150.622 85.6102V108.573C150.622 112.565 153.859 115.802 157.851 115.802C161.844 115.802 165.08 112.565 165.08 108.573V85.6102C165.08 81.6177 161.844 78.3812 157.851 78.3812Z"/>
</mask>
<path fill-rule="evenodd" clip-rule="evenodd" d="M84.2734 63.1125C75.9892 63.1125 69.2734 69.8283 69.2734 78.1126V127.206C69.2734 135.49 75.9892 142.206 84.2734 142.206H162.283C170.567 142.206 177.283 135.49 177.283 127.206V78.1125C177.283 69.8283 170.567 63.1125 162.283 63.1125H84.2734ZM157.851 78.3812C153.859 78.3812 150.622 81.6177 150.622 85.6102V108.573C150.622 112.565 153.859 115.802 157.851 115.802C161.844 115.802 165.08 112.565 165.08 108.573V85.6102C165.08 81.6177 161.844 78.3812 157.851 78.3812Z" fill="white"/>
<path d="M69.9759 78.1126C69.9759 70.2163 76.3771 63.815 84.2734 63.815V62.4101C75.6012 62.4101 68.5709 69.4403 68.5709 78.1126H69.9759ZM69.9759 127.206V78.1126H68.5709V127.206H69.9759ZM84.2734 141.504C76.3771 141.504 69.9759 135.102 69.9759 127.206H68.5709C68.5709 135.878 75.6012 142.909 84.2734 142.909V141.504ZM162.283 141.504H84.2734V142.909H162.283V141.504ZM176.58 127.206C176.58 135.102 170.179 141.504 162.283 141.504V142.909C170.955 142.909 177.985 135.878 177.985 127.206H176.58ZM176.58 78.1125V127.206H177.985V78.1125H176.58ZM162.283 63.815C170.179 63.815 176.58 70.2163 176.58 78.1125H177.985C177.985 69.4403 170.955 62.4101 162.283 62.4101V63.815ZM84.2734 63.815H162.283V62.4101H84.2734V63.815ZM151.325 85.6102C151.325 82.0057 154.247 79.0837 157.851 79.0837V77.6787C153.471 77.6787 149.92 81.2298 149.92 85.6102H151.325ZM151.325 108.573V85.6102H149.92V108.573H151.325ZM157.851 115.099C154.247 115.099 151.325 112.177 151.325 108.573H149.92C149.92 112.953 153.471 116.504 157.851 116.504V115.099ZM164.378 108.573C164.378 112.177 161.456 115.099 157.851 115.099V116.504C162.232 116.504 165.783 112.953 165.783 108.573H164.378ZM164.378 85.6102V108.573H165.783V85.6102H164.378ZM157.851 79.0837C161.456 79.0837 164.378 82.0057 164.378 85.6102H165.783C165.783 81.2298 162.232 77.6787 157.851 77.6787V79.0837Z" fill="black" mask="url(#path-2-inside-1)"/>
<path d="M69.1731 35.1143L68.3786 25.5805C68.4755 25.5712 68.5922 25.5604 68.7272 25.5487C69.1718 25.5102 69.8158 25.4618 70.6105 25.4225C72.2005 25.344 74.3913 25.3023 76.7955 25.4493C81.629 25.7447 87.2272 26.7979 90.5905 29.7523C92.6901 31.5967 94.2047 34.2679 95.2897 37.2673C96.3737 40.264 97.0204 43.564 97.3995 46.639C97.7783 49.7127 97.8888 52.552 97.9043 54.6234C97.9121 55.6588 97.8962 56.5015 97.8784 57.0847C97.8712 57.3194 97.8637 57.512 97.8574 57.6583H86.2625C86.2719 57.5849 86.2822 57.5022 86.2933 57.4107C86.3434 56.9953 86.408 56.3975 86.4663 55.6654C86.5829 54.2019 86.6749 52.1976 86.5753 50.0378C86.4758 47.8799 86.1846 45.5544 85.5289 43.4534C84.874 41.355 83.846 39.4512 82.2523 38.1746C80.1097 36.4583 76.7261 35.7069 73.9386 35.3743C72.5344 35.2068 71.2612 35.1436 70.3391 35.1221C69.8779 35.1114 69.5039 35.1111 69.2447 35.1135C69.2198 35.1137 69.1959 35.114 69.1731 35.1143Z" fill="black" stroke="black" stroke-width="0.702496"/>
<rect x="78.9811" y="56.6601" width="25.662" height="13.7555" rx="1.75624" fill="white" stroke="black" stroke-width="0.702496"/>
</svg>
