<svg width="247" height="169" viewBox="0 0 247 169" fill="none" xmlns="http://www.w3.org/2000/svg">
<rect width="246.531" height="168.154" rx="13" fill="#58C84E"/>
<path d="M76.9636 47.8387C77.1988 46.6185 76.4004 45.4387 75.1802 45.2034C73.9601 44.9682 72.7802 45.7666 72.545 46.9868L76.9636 47.8387ZM77.8295 52.4302L79.4051 50.8239L79.4051 50.8239L77.8295 52.4302ZM167.944 134.821L166.368 136.427L167.944 134.821ZM173.224 140.528C174.455 140.696 175.59 139.835 175.758 138.603C175.927 137.372 175.065 136.238 173.834 136.069L173.224 140.528ZM146.012 67.3575L144.406 68.9334L146.012 67.3575ZM74.7543 47.4127C72.545 46.9868 72.5445 46.9893 72.544 46.9918C72.5438 46.9926 72.5434 46.9951 72.543 46.9968C72.5424 47.0002 72.5418 47.0037 72.5411 47.0071C72.5399 47.014 72.5386 47.021 72.5374 47.0282C72.5349 47.0425 72.5324 47.0572 72.5301 47.0725C72.5253 47.1029 72.5209 47.1353 72.5169 47.1695C72.5088 47.2379 72.5025 47.3134 72.499 47.396C72.492 47.5616 72.4963 47.7532 72.5197 47.9697C72.5668 48.4047 72.689 48.925 72.9356 49.5255C73.4256 50.7192 74.4015 52.2195 76.254 54.0365L79.4051 50.8239C77.8578 49.3062 77.2961 48.2979 77.0984 47.8164C77.0011 47.5794 76.992 47.4705 76.9936 47.4858C76.9944 47.4925 76.9975 47.5265 76.9949 47.5871C76.9937 47.6171 76.991 47.6533 76.986 47.6954C76.9836 47.7165 76.9805 47.7389 76.9768 47.7628C76.975 47.7748 76.9729 47.7871 76.9707 47.7997C76.9696 47.806 76.9685 47.8125 76.9673 47.8189C76.9667 47.8222 76.9661 47.8255 76.9655 47.8288C76.9652 47.8304 76.9647 47.8329 76.9645 47.8337C76.9641 47.8362 76.9636 47.8387 74.7543 47.4127ZM166.368 136.427C168.148 138.174 169.748 139.188 170.972 139.772C171.581 140.064 172.092 140.245 172.477 140.358C172.669 140.414 172.83 140.453 172.956 140.48C173.019 140.493 173.073 140.503 173.117 140.511C173.14 140.515 173.16 140.518 173.178 140.521C173.187 140.522 173.195 140.523 173.203 140.525C173.207 140.525 173.21 140.526 173.214 140.526C173.216 140.526 173.217 140.527 173.219 140.527C173.22 140.527 173.221 140.527 173.222 140.527C173.223 140.527 173.224 140.528 173.529 138.298C173.834 136.069 173.835 136.069 173.837 136.069C173.837 136.07 173.838 136.07 173.839 136.07C173.841 136.07 173.842 136.07 173.844 136.07C173.847 136.071 173.849 136.071 173.852 136.072C173.858 136.072 173.862 136.073 173.867 136.074C173.875 136.075 173.882 136.076 173.886 136.077C173.895 136.079 173.895 136.079 173.886 136.077C173.87 136.073 173.82 136.062 173.74 136.039C173.58 135.992 173.297 135.896 172.912 135.712C172.146 135.346 170.953 134.621 169.519 133.215L166.368 136.427ZM76.254 54.0365C86.7626 64.3439 100.464 63.3777 112.704 62.4934C125.391 61.5768 136.412 60.7869 144.406 68.9334L147.618 65.7817C137.909 55.8876 124.518 57.1281 112.38 58.0051C99.7942 58.9144 88.2555 59.5048 79.4051 50.8239L76.254 54.0365ZM144.406 68.9334C152.331 77.0095 153.005 88.186 153.933 100.716C154.836 112.922 156.006 126.263 166.368 136.427L169.519 133.215C160.523 124.39 159.338 112.774 158.421 100.384C157.527 88.3165 156.915 75.256 147.618 65.7817L144.406 68.9334Z" fill="black"/>
<path d="M77.2534 55.2991L114.343 104.178L167.683 138.435" stroke="black" stroke-width="1.00153"/>
<path d="M145.515 72.5476L151.133 67.6748" stroke="white" stroke-width="2.00306"/>
<path d="M141.678 68.3414L146.408 62.6573" stroke="white" stroke-width="2.00306"/>
<path d="M148.148 77.051L154.814 73.8337" stroke="white" stroke-width="2.00306"/>
<path d="M137.237 65.7153L140.535 59.1524" stroke="white" stroke-width="2.00306"/>
<path d="M114.09 105.679L163.661 51.453" stroke="black" stroke-width="1.00153"/>
<path d="M163.898 50.7275L160.347 50.3816L169.194 44.9338L164.561 54.2332L163.898 50.7275Z" fill="black" stroke="black" stroke-width="1.00153"/>
</svg>
