<svg width="247" height="169" viewBox="0 0 247 169" fill="none" xmlns="http://www.w3.org/2000/svg">
<rect width="246.531" height="168.154" rx="13" fill="#58C84E"/>
<path d="M149.062 47H178.644C188.585 47 196.644 55.0589 196.644 65V102.381H149.062V47Z" fill="black"/>
<rect x="50" y="96.9211" width="99.0624" height="5.46013" fill="black"/>
<rect x="50" y="47" width="95.9423" height="46.8011" fill="white"/>
<rect x="100.702" y="102.381" width="64.7416" height="9.36023" fill="black"/>
<rect x="187.284" y="102.381" width="9.36023" height="9.36023" fill="black"/>
<circle cx="65.9907" cy="112.132" r="8.97022" fill="black"/>
<circle cx="86.272" cy="112.132" r="8.97022" fill="black"/>
<circle cx="176.753" cy="112.132" r="8.97022" fill="black"/>
<path d="M165.428 64.2898H195.213C195.213 64.2898 195.838 66.0154 196.066 67.1399C196.389 68.7381 196.628 71.2774 196.628 71.2774V76.7701H165.428V64.2898Z" fill="white"/>
</svg>
