<svg width="179" height="48" viewBox="0 0 179 48" fill="none" xmlns="http://www.w3.org/2000/svg">
<path d="M10.2098 16.4947C14.6405 3.46499 39.9724 -2.38057 43.7585 23.5286C43.6018 19.1521 43.8731 14.3514 41.4217 10.0207C37.543 3.16862 31.5935 2.20823 26.6208 2.19817C18.2968 2.18133 11.3331 8.41702 10.2098 16.4947Z" fill="url(#paint0_linear)"/>
<path d="M10.2098 16.4947C14.6405 3.46499 39.9724 -2.38057 43.7585 23.5286C43.6018 19.1521 43.8731 14.3514 41.4217 10.0207C37.543 3.16862 31.5935 2.20823 26.6208 2.19817C18.2968 2.18133 11.3331 8.41702 10.2098 16.4947Z" fill="url(#paint1_linear)"/>
<path d="M37.8711 15.32C43.6548 28.5831 27.4278 48.9304 7.10479 30.9501C10.0089 34.2279 12.8525 38.1054 17.4984 39.8886C24.8492 42.71 30.0515 39.6676 33.8955 36.513C40.3301 31.2324 42.1411 22.2683 37.8711 15.32Z" fill="url(#paint2_linear)"/>
<path d="M20.2213 34.9476C6.68111 32.4841 -2.38708 8.08717 22.6819 0.526547C18.3763 1.32611 13.5879 1.76475 9.66549 4.82725C3.45938 9.67276 3.38569 15.6989 4.1081 20.6188C5.31738 28.8545 12.0662 35.0262 20.2213 34.9476Z" fill="url(#paint3_linear)"/>
<path d="M20.2213 34.9476C6.68111 32.4841 -2.38708 8.08717 22.6819 0.526547C18.3763 1.32611 13.5879 1.76475 9.66549 4.82725C3.45938 9.67276 3.38569 15.6989 4.1081 20.6188C5.31738 28.8545 12.0662 35.0262 20.2213 34.9476Z" fill="url(#paint4_linear)"/>
<ellipse cx="24.4652" cy="20.8381" rx="14.9174" ry="15.1481" fill="url(#paint5_radial)"/>
<path d="M21.1898 6.9798C21.2137 6.84852 21.2313 6.6239 21.2593 6.4918C21.277 6.48003 21.2842 6.47419 21.3048 6.46904C21.423 6.4395 21.0613 6.48235 20.9407 6.49939C20.6677 6.53795 20.414 6.6235 20.1493 6.67891C20.007 6.70869 19.8566 6.74582 19.7194 6.79269C19.4942 6.86968 19.2673 6.959 19.0519 7.06072C18.8307 7.16518 18.6441 7.28001 18.397 7.34391C18.1781 7.40053 17.9499 7.46866 17.7598 7.58665C17.5773 7.69996 17.3728 7.77137 17.177 7.8572C16.9894 7.93946 16.8121 8.04044 16.6283 8.13028C16.1534 8.36248 15.9635 8.90433 15.56 9.2226C15.2589 9.46019 14.9347 9.63422 14.6776 9.92806C14.4897 10.1428 14.3392 10.3783 14.268 10.6563C14.199 10.9254 14.0987 11.1719 13.8988 11.3718C13.6484 11.6223 13.3487 11.7785 13.1251 12.0558C13.0282 12.1759 12.9659 12.3189 12.8583 12.4313C12.7406 12.5544 12.6 12.655 12.4512 12.7372C12.2495 12.8487 11.9872 13.0024 11.9758 13.2682C11.9695 13.4181 11.9605 13.5813 11.9771 13.731C11.9879 13.8279 11.9892 13.9202 12.0783 13.8549C12.2163 13.7536 12.4465 13.7967 12.6067 13.7967C12.9123 13.7967 13.2295 13.745 13.4588 13.9939C13.5358 14.0775 13.5256 14.1689 13.6358 14.2063C13.7704 14.252 13.9011 14.2837 14.0176 14.3707C14.0814 14.4183 14.125 14.5045 14.1693 14.4288C14.2345 14.3177 14.2764 14.1974 14.3463 14.0875C14.4525 13.9207 14.5631 13.7595 14.6599 13.5868C14.7076 13.5016 14.7273 13.4047 14.7737 13.3213C14.8032 13.2681 14.794 13.2117 14.8445 13.1696C14.9353 13.0939 14.9885 12.9927 15.0708 12.9105C15.2287 12.7525 15.4186 12.747 15.4323 12.4996C15.447 12.2362 15.5468 12.037 15.6258 11.7928C15.6737 11.6448 15.7763 11.4955 15.7067 11.339C15.6645 11.244 15.6624 11.0565 15.7396 10.9749C15.8436 10.8648 16.018 10.6958 16.1795 10.7018C16.3801 10.7092 16.6074 10.7669 16.7939 10.8383C16.9091 10.8824 17.0138 10.8505 17.1315 10.827C17.2857 10.7961 17.4351 10.7564 17.5727 10.6778C17.7108 10.5989 17.757 10.4091 17.8445 10.2833C17.9616 10.1151 18.0277 9.9345 18.2049 9.80669C18.2589 9.76773 18.3431 9.76285 18.3465 9.68532C18.3525 9.5456 18.3955 9.41735 18.4653 9.29593C18.5669 9.11924 18.7078 9.00205 18.837 8.85597C18.9776 8.69706 19.1865 8.67707 19.3692 8.77758C19.4827 8.83998 19.5046 8.90475 19.4716 9.0317C19.4495 9.11716 19.4569 9.20691 19.4363 9.28961C19.4153 9.37355 19.2759 9.4572 19.2137 9.5058C19.0282 9.65077 18.9173 9.79604 18.8471 10.0191C18.8133 10.1264 18.835 10.3393 18.746 10.411C18.5839 10.5416 18.3817 10.6384 18.2377 10.7878C18.1575 10.871 18.1872 11.0265 18.1872 11.1342C18.1872 11.3673 17.831 11.3619 17.6638 11.3832C17.5822 11.3936 17.5235 11.4185 17.4564 11.4667C17.2768 11.5958 17.056 11.6794 16.8496 11.7562C16.6837 11.8178 16.5942 11.8343 16.5942 12.0204C16.5942 12.0932 16.5824 12.1782 16.6068 12.248C16.6505 12.3727 16.7599 12.5206 16.8344 12.6285C16.903 12.7279 16.9636 12.695 17.0481 12.6475C17.0933 12.622 17.1387 12.5597 17.1871 12.5476C17.2459 12.5329 17.3204 12.5451 17.3806 12.5451C17.5321 12.5451 17.6168 12.6024 17.7421 12.6917C17.9196 12.8182 18.0841 12.8182 18.2954 12.8182H18.2959C18.4178 12.8182 18.5533 12.8368 18.6701 12.7954C18.9188 12.7073 19.1543 12.6711 19.4135 12.6538C19.6525 12.6379 19.9261 12.5885 20.1316 12.4515C20.3096 12.3329 20.4173 12.0596 20.4173 11.851C20.4173 11.7934 20.4847 11.7445 20.526 11.7132C20.7581 11.5374 21.0853 11.4965 21.3541 11.406C21.7273 11.2803 21.8253 11.0381 21.9534 10.7031C21.9972 10.5886 22.0971 10.2648 21.9496 10.2011C21.8193 10.1449 21.7661 10.0241 21.6917 9.91036C21.6567 9.85677 21.6424 9.84869 21.5729 9.83198C21.4021 9.79093 21.2337 9.7489 21.0646 9.70555C20.94 9.67361 20.8193 9.65835 20.8725 9.49568C20.9086 9.38518 20.918 9.30157 20.918 9.1872C20.918 8.85952 20.6135 8.71925 20.4869 8.45014C20.4279 8.32491 20.4668 8.2098 20.4274 8.08603C20.3868 7.95838 20.0532 8.10983 20.0532 7.92041C20.0532 7.8597 20.1049 7.75292 20.1316 7.6979C20.1858 7.58638 20.2023 7.44675 20.3276 7.39195C20.5797 7.28166 20.8959 7.32348 21.1367 7.15427C21.1736 7.12833 21.1814 7.02575 21.1898 6.9798Z" fill="#8DB431"/>
<path d="M30.7183 9.39556C31.1465 8.75338 30.6353 7.65069 30.4537 7.02881C30.5613 7.10056 30.6799 7.21489 30.7535 7.32118C30.8022 7.39158 30.8687 7.45368 30.9126 7.52844C31.0145 7.70157 31.3189 7.81285 31.4863 7.90223C31.7043 8.01866 31.8918 8.15601 32.1173 8.26122C32.5525 8.4643 32.9078 8.79147 33.3182 9.05323C33.5592 9.20686 33.8096 9.32759 34.067 9.45171L34.0695 9.45293C34.3051 9.56649 34.4916 9.7258 34.7154 9.86003C35.0569 10.0649 35.2325 10.3725 35.45 10.6927C35.5925 10.9025 35.7791 11.075 35.9052 11.2978C35.9979 11.4617 36.0763 11.6196 36.1976 11.766C36.3654 11.9686 36.4854 12.2101 36.6343 12.4285C36.968 12.9179 36.983 13.5037 37.2153 14.0347C37.346 14.3334 37.4874 14.6799 37.6817 14.9414C37.8483 15.1657 38.0167 15.3834 38.1628 15.6224C38.3011 15.8488 38.391 16.1035 38.479 16.3528L38.4792 16.3533C38.6231 16.7609 38.6643 17.2278 38.8493 17.6209C39.0027 17.947 39.1047 18.2802 39.2953 18.5887C39.4161 18.7844 39.3863 19.0488 39.3804 19.2715C39.3721 19.5876 39.3804 19.8976 39.3804 20.2171C39.3804 20.3057 39.3591 20.5584 39.2139 20.4651C39.1308 20.4117 39.1428 20.3871 39.0362 20.3855C38.9344 20.384 38.7948 20.3952 38.7142 20.3189C38.6344 20.2432 38.7474 20.0892 38.6069 20.0857C38.457 20.0821 38.3782 20.0887 38.2664 20.2005C38.1784 20.2885 38.1813 20.3447 38.1813 20.4688C38.1813 20.5514 38.2016 20.6601 38.1406 20.726C38.1063 20.7631 38.0504 20.7644 38.0221 20.7926C37.9757 20.8391 38.0496 21.1574 38.0481 21.2256C38.0432 21.4444 37.9137 21.5042 37.7416 21.5836L37.7353 21.5865C37.5791 21.6586 37.6101 21.9166 37.4318 22.001C37.2847 22.0707 37.13 22.2126 36.9637 22.2175C36.79 22.2226 36.5541 22.164 36.3937 22.2323C36.0777 22.3669 35.8233 22.6316 35.5074 22.7541C35.373 22.8062 35.1767 22.8044 35.0577 22.7171C34.9895 22.6671 34.9601 22.588 34.8986 22.5376C34.8 22.457 34.3432 22.4446 34.2638 22.4284C33.8045 22.3349 33.3433 22.2126 32.9408 21.9621C32.6692 21.7931 32.5832 21.56 32.3708 21.3589C32.2564 21.2506 32.0089 21.2556 31.8786 21.2386C31.3136 21.1648 30.7423 21.0811 30.2095 20.8666C29.9078 20.7452 29.592 20.5709 29.4637 20.256C29.3865 20.0665 29.3707 19.8149 29.3212 19.612C29.2716 19.4085 29.235 19.2137 29.2028 19.0069C29.1312 18.5465 28.944 18.1984 28.6292 17.8504C28.4879 17.6943 28.3278 17.6093 28.1314 17.5376C27.8541 17.4364 27.452 17.4433 27.2302 17.2323C26.9526 16.9683 27.0778 16.2992 27.171 15.9758C27.2636 15.6546 27.2105 15.313 27.2228 14.9821C27.2274 14.8578 27.2894 14.7541 27.2894 14.6231C27.2894 14.5486 27.3086 14.4783 27.3246 14.4066C27.3363 14.3536 27.4577 14.2128 27.5059 14.1753C27.57 14.1255 27.7128 14.1506 27.7483 14.0902C27.8169 13.9737 27.8142 13.8383 27.8816 13.7238C27.9185 13.6611 28.0821 13.6835 28.1462 13.672L28.1567 13.6701C28.3023 13.644 28.4487 13.6178 28.5847 13.5573C28.7393 13.4886 28.7331 13.2669 28.7716 13.128C28.8317 12.9116 28.8478 12.8602 29.0696 12.7579C29.2509 12.6742 29.73 12.5077 29.7524 12.273C29.7679 12.1105 29.576 12.2019 29.4397 12.1361C29.2438 12.0417 29.1809 11.9705 28.9974 12.1121C28.8728 12.2082 28.7029 12.2552 28.5884 12.3582C28.5415 12.4004 28.3127 12.7536 28.2905 12.5543C28.2617 12.2949 28.2887 12.0198 28.2887 11.7586C28.2887 11.6026 28.2207 11.3208 28.4219 11.2997C28.7853 11.2616 29.4323 11.256 29.5192 10.7779C29.5393 10.6676 29.5138 10.3954 29.658 10.3634C29.9069 10.308 30.1801 10.5687 30.413 10.4855C30.5275 10.4446 30.487 10.2132 30.487 10.1191C30.487 9.85574 30.5714 9.61594 30.7183 9.39556Z" fill="#8DB431"/>
<path d="M22.1214 29.8779C22.1214 29.4305 22.0577 29.0126 21.9918 28.5679C22.1162 28.7457 21.9382 28.2537 22 28.1424C22.2013 27.78 22.6414 27.5613 22.6414 27.1119C22.6414 26.7919 22.5986 26.4286 22.8341 26.1757C23.582 25.3724 24.9795 25.6461 25.9314 25.8521C26.2012 25.9106 26.3531 25.9943 26.5728 26.1199C27.3503 26.5641 28.2623 26.7185 28.9882 27.2737C29.304 27.5152 29.638 27.9836 29.3523 28.387C29.2731 28.4987 29.1348 28.556 29.125 28.7067C29.1188 28.8009 29.125 28.8975 29.125 28.9918C29.125 29.1723 29.0771 29.4047 29.2001 29.5523C29.3968 29.7884 29.7144 30.0608 29.7144 30.3941C29.7144 30.5513 29.753 30.7665 29.6374 30.891C29.4517 31.091 29.3421 31.3253 29.2791 31.5922C29.2449 31.737 29.3176 31.9064 29.1597 31.9813C28.964 32.0739 28.8248 32.1772 28.682 32.3549C28.3057 32.8231 28.5306 33.81 27.7959 33.9113C27.5742 33.9419 27.5124 34.0622 27.299 34.1578C26.8375 34.3647 26.3182 34.3392 25.8235 34.3312C25.7437 34.3299 25.6197 34.323 25.5924 34.2272C25.579 34.1803 25.606 34.1137 25.5673 34.075C25.5376 34.0453 25.4562 34.0448 25.4229 34.0384C25.2489 34.0052 25.0777 33.9621 24.9086 33.9094C24.6414 33.826 24.2959 33.7364 24.0861 33.5376C23.8777 33.3402 23.3981 33.3873 23.1365 33.3219C22.8297 33.2452 22.8329 33.0985 22.8841 32.8423C22.946 32.5328 22.9759 32.3253 22.8764 32.0159C22.8444 31.9161 22.7683 31.8736 22.7821 31.7636C22.8096 31.5434 22.9882 31.4061 22.9882 31.1588C22.9882 31.0784 23.019 30.9414 22.9496 30.8833C22.8429 30.7939 22.7194 30.7493 22.6492 30.6214C22.5385 30.4199 22.3407 30.4166 22.1984 30.24C22.1076 30.1272 22.1214 30.0152 22.1214 29.8779Z" fill="#8DB431"/>
<path d="M29.9571 32.7017C30.2402 32.0648 31.0912 31.9002 31.2399 31.1415C31.1518 31.1415 30.9664 31.114 31.0204 31.0355C31.1366 30.8665 31.33 30.7973 31.525 30.7948C31.8156 30.791 31.8561 30.8948 31.864 31.1954C31.8703 31.4329 31.9575 31.9148 31.787 32.0853C31.5728 32.2995 31.3345 32.3721 31.0743 32.5129C30.9299 32.591 30.8354 32.5861 30.7122 32.7094C30.5496 32.872 30.4579 32.9791 30.2268 32.9791C30.0066 32.9791 29.8426 32.9593 29.9571 32.7017Z" fill="#8DB431"/>
<path d="M10.8802 23.0014C10.7052 22.8148 10.6431 22.6534 10.3936 22.6835C10.2655 22.7689 10.071 22.8961 10.025 23.0457C9.96428 23.243 10.0952 23.4416 10.1328 23.6255C10.1809 23.8606 10.2033 24.0921 10.2311 24.3286C10.2552 24.5335 10.3452 24.7381 10.3755 24.9469C10.398 25.1019 10.4241 25.2718 10.4718 25.4207C10.5634 25.7062 10.7201 25.9606 10.8898 26.2047C11.0851 26.4854 11.2045 26.802 11.408 27.0772C11.5134 27.2199 11.6397 27.3331 11.7412 27.476C11.9232 27.7322 12.0489 28.0116 12.2054 28.2811C12.4172 28.6458 12.604 29.2346 13.0895 29.2346C13.2565 29.2346 13.1457 28.8669 13.1415 28.7838C13.1367 28.6877 13.087 28.5765 13.0549 28.4872C12.9883 28.3023 13.0209 28.1133 12.947 27.9305C12.8548 27.7024 12.769 27.231 12.5175 27.0926C12.2131 26.9252 12.1934 26.5063 12.0475 26.2143C11.983 26.0853 11.9462 25.9426 11.8433 25.8368C11.6739 25.6627 11.6058 25.4734 11.4773 25.2743C11.2502 24.9223 11.0858 24.5341 11.0593 24.1109C11.0532 24.013 11.0266 23.9267 11.0266 23.8258C11.0266 23.6952 11.1006 23.587 11.0959 23.4522C11.0915 23.3226 10.9666 23.0936 10.8802 23.0014Z" fill="#8DB431"/>
<path d="M22.7096 35.2108C22.6522 35.383 22.7094 35.6121 22.754 35.7972C22.8778 35.7797 23.0327 35.7838 23.0963 35.7908C23.2351 35.8063 23.3521 35.897 23.4917 35.906C23.6664 35.9172 23.8346 35.9451 24.0109 35.9451C24.1752 35.9451 24.8907 36.0266 24.8907 35.7496C24.8907 35.6412 24.8516 35.517 24.8516 35.3976C24.8516 35.0044 24.7804 34.5215 24.9124 34.1441C25.0854 33.6499 25.1644 33.1818 25.1644 32.6517V30.69V29.9144C25.1644 29.6332 25.0471 29.3532 25.0471 29.0715C25.0471 28.7709 25.008 28.4829 25.008 28.1808C25.008 27.9869 25.0196 27.7017 25.2817 27.6942C25.4837 27.6884 25.6308 27.7724 25.8205 27.7724C26.1215 27.7724 26.1932 27.8602 26.3202 28.1026C26.3496 28.1589 26.4079 28.3645 26.4549 28.3894C26.5428 28.4359 26.7263 28.3981 26.8198 28.3981C27.0932 28.3981 27.1691 28.7213 27.3369 28.8891C27.4604 29.0126 27.7758 28.9455 27.9408 28.9455C28.2517 28.9455 28.4944 28.8921 28.7207 29.1411C28.9037 29.3424 28.9589 29.4967 29.0552 29.7428C29.1023 29.863 29.2809 29.8741 29.3876 29.9427C29.523 30.0297 29.6607 30.115 29.8264 30.1186C30.0029 30.1226 30.2838 30.1425 30.3739 29.9622C30.4219 29.8663 30.4434 29.7984 30.4434 29.6885C30.4434 29.473 30.7236 29.7328 30.8345 29.7863C31.0595 29.8948 31.1854 30.0528 31.3906 29.884C31.4813 29.8094 31.6416 29.5568 31.7404 29.5321C31.9506 29.4795 32.7114 29.6385 32.7114 29.3366C32.7114 29.1666 32.6723 29.0052 32.6723 28.8369C32.6723 28.731 32.669 28.6729 32.5941 28.5936C32.522 28.5173 32.585 28.4472 32.5919 28.3568C32.6009 28.2398 32.5763 28.1141 32.5941 27.9984C32.6108 27.8897 32.9078 27.8897 32.9995 27.8897H33.0025C33.2645 27.8897 33.6667 28.0182 33.9063 27.9202C34.0911 27.8445 34.1498 27.386 34.3885 27.3814C34.7586 27.3743 35.4588 27.3735 35.7202 27.0686C35.8584 26.9074 35.7615 26.4201 35.7615 26.2105V24.8006C35.7615 24.6264 35.8146 24.4444 35.6138 24.3878C35.3596 24.3161 34.7979 24.2187 34.747 23.8621C34.7307 23.7479 34.7066 23.4984 34.7535 23.3928C34.8547 23.1651 34.7247 23.0561 35.0707 23.1582C35.2576 23.2133 35.339 23.3453 35.4574 23.1495C35.5154 23.0535 35.6277 22.9185 35.642 22.8041C35.6744 22.5448 35.386 22.2786 35.1771 22.1611C34.9867 22.054 34.6685 21.9248 34.5971 21.7027C34.5287 21.4899 34.5747 21.2303 34.3451 21.0857C34.2001 20.9944 34.0114 20.9269 33.8454 20.8902C33.7682 20.8731 33.4598 20.829 33.4153 20.7512C33.3552 20.6459 33.2681 20.5719 33.2111 20.4601C33.1692 20.378 33.1346 20.2361 33.0807 20.1668C32.9791 20.0362 32.7762 19.7277 32.6245 19.7171C32.5317 19.7106 32.3905 19.6969 32.303 19.7366C32.1953 19.7856 31.9518 19.7171 31.8294 19.7171C31.5648 19.7171 31.4382 19.683 31.2841 19.4434C31.2042 19.319 31.2007 19.1177 31.2298 18.9719C31.2603 18.8198 31.3979 18.4975 31.2646 18.3485C31.1544 18.2253 31.2431 17.9183 30.9996 17.9183C30.7855 17.9183 30.5624 17.9926 30.3435 17.9965C30.2445 17.9983 30.0378 18.0361 29.959 17.9748C29.8134 17.8616 29.9454 17.5884 29.972 17.4686C30.0348 17.186 29.9967 17.1092 30.2609 16.9494C30.4746 16.8202 30.4693 16.3452 30.3565 16.15C30.2657 15.9928 30.1251 15.9229 30.0046 15.798C29.9277 15.7185 29.9268 15.5608 29.8156 15.533C29.6582 15.4937 29.215 15.5255 29.153 15.3549C29.114 15.2477 29.1312 15.1536 29.1117 15.0464C29.0783 14.8627 28.7839 14.7044 28.6382 14.6261L28.636 14.6249C28.2922 14.4402 28.1733 14.5145 27.9017 14.7031C27.7437 14.8128 27.4264 14.7118 27.2326 14.7118C26.9039 14.7118 26.5725 14.6727 26.2398 14.6727C26.0253 14.6727 26.0375 14.671 26.0834 14.4968C26.1196 14.3592 26.074 14.2648 26.0334 14.134C26.0042 14.0399 25.9949 13.7278 26.0421 13.6473C26.1621 13.4426 26.2202 13.4081 26.2202 13.1672C26.2202 12.9851 26.2572 12.8637 26.0964 12.7523C25.9618 12.6591 25.8806 12.522 25.7097 12.522C25.5434 12.522 25.3854 12.5579 25.2209 12.5611C24.9872 12.5657 24.7083 12.5989 24.5475 12.396C24.2917 12.0736 23.9906 12.1697 23.6068 12.0354C23.4277 11.9727 23.1527 11.9721 23.0311 12.1158C22.8339 12.3489 22.5909 12.5565 22.2968 12.6545C22.1183 12.7141 21.927 12.7469 21.7711 12.8566C21.7219 12.8912 21.6945 12.9548 21.682 13.0108C21.6483 13.1629 21.4571 13.1477 21.3453 13.1477C21.1396 13.1477 20.7952 13.0615 20.6588 13.2433L20.6519 13.2525C20.5527 13.3848 20.4218 13.5595 20.2721 13.6343C20.1177 13.7115 19.91 13.7787 19.7486 13.8146C19.4598 13.8788 19.4227 14.2868 19.1903 14.4294C19.0711 14.5025 18.7836 14.5945 18.6341 14.5945C18.2869 14.5945 17.9638 15.3628 17.876 15.6264C17.7922 15.8777 18.0185 15.8461 17.9455 16.0652C17.8464 16.3624 17.6028 16.5635 17.4523 16.8234C17.4031 16.9085 17.3013 16.9354 17.2481 17.0037C17.1489 17.1313 17.4429 17.1794 17.5088 17.2058C17.6342 17.2559 17.7576 17.289 17.8912 17.2927C18.0348 17.2967 18.121 17.4054 18.2431 17.4665C18.3542 17.522 18.7573 17.6161 18.4973 17.8184C18.3938 17.8989 18.0958 17.8401 17.9781 17.8401H16.931C16.7019 17.8401 16.6046 17.8626 16.4834 18.0443C16.356 18.2356 16.1965 18.3983 16.0359 18.5614C15.8946 18.7048 15.8118 18.8847 15.6557 19.0132C15.5886 19.0686 15.1328 19.2352 15.2104 19.3565C15.2457 19.4116 15.3736 19.3812 15.3864 19.426C15.4712 19.7229 14.7877 19.973 14.6152 20.1168C14.4472 20.2568 14.5208 20.6495 14.5283 20.8424C14.5329 20.9643 14.7604 21.1288 14.8389 21.2204C14.9282 21.3246 15.0898 21.3077 15.1756 21.4181C15.2747 21.5454 15.3103 21.5715 15.3103 21.7483C15.3103 21.7934 15.3388 21.946 15.2712 21.946C15.1933 21.946 15.0466 21.9255 14.9779 21.8873C14.9022 21.8452 14.8224 21.9025 14.7412 21.9069C14.5368 21.9179 14.239 21.9889 14.1068 22.1589C14.0074 22.2866 14.1238 22.2935 14.1351 22.4C14.1571 22.6094 14.1372 22.8306 14.1372 23.0409C14.1372 23.2452 14.0834 23.5272 14.1394 23.723C14.1553 23.7787 14.188 23.8805 14.2372 23.9207C14.2922 23.9658 14.4855 23.9566 14.4892 24.0185C14.503 24.2536 14.2875 24.189 14.1372 24.3313C13.8739 24.5808 13.1025 24.2116 13.2596 24.8397C13.3392 25.1581 13.5054 25.2463 13.7158 25.4566C13.8304 25.5712 14.0323 25.4666 14.1763 25.5348C14.2579 25.5735 14.386 25.5607 14.4501 25.6217C14.6272 25.7904 14.6852 26.0488 14.7238 26.28C14.746 26.4134 14.8348 26.5046 14.8411 26.6471C14.8465 26.768 14.8722 26.8255 14.9388 26.9143C14.9952 26.9894 15.1224 26.957 15.1539 27.0121C15.1993 27.0915 15.3711 27.1305 15.4494 27.1685C15.7156 27.2978 16.0268 27.4596 16.327 27.4596C16.4433 27.4596 16.6128 27.4273 16.7181 27.477C16.8784 27.5527 16.9775 27.8051 17.0678 27.9462C17.1345 28.0504 17.171 28.1023 17.2742 28.1635C17.3328 28.1982 17.4625 28.1751 17.5001 28.2221C17.6344 28.39 17.8 28.7891 18.0476 28.7891C18.1823 28.7891 18.3134 28.7109 18.456 28.7109C18.545 28.7109 18.5945 28.7025 18.6732 28.6631C18.9968 28.5013 19.8273 28.4112 20.0397 28.7696C20.1547 28.9636 20.1793 28.9988 20.4047 28.9629C20.6735 28.9201 20.9343 28.8767 21.2063 28.8673C21.3563 28.8622 21.553 28.5912 21.6277 28.485C21.7445 28.3191 21.875 28.2438 22.0557 28.1635C22.2436 28.08 22.1833 27.9347 22.236 27.7898C22.3151 27.5724 22.6537 27.4926 22.8573 27.5465C23.0221 27.5901 23.2017 27.8154 23.257 27.9593C23.2836 28.0282 23.3821 28.0798 23.4526 28.0853C23.5602 28.0935 23.5856 28.1879 23.6568 28.2591C23.7853 28.3875 23.8262 28.7621 23.8371 28.9303C23.8566 29.2325 23.9913 29.4968 23.9913 29.7884C23.9913 29.9816 24.0016 30.1778 23.9892 30.3706C23.9798 30.5158 23.9131 30.6434 23.9131 30.7921V31.4677V31.4678C23.9131 31.6944 23.9131 31.887 23.8436 32.1042C23.8088 32.213 23.7567 32.3491 23.7567 32.4649C23.7567 32.6846 23.6394 32.8264 23.6394 33.0514V33.5902C23.6394 34.0634 23.4613 34.2071 23.1506 34.5178C23.0421 34.6263 22.8945 34.7036 22.8399 34.8523C22.7968 34.9699 22.7486 35.0937 22.7096 35.2108Z" fill="#236532"/>
<path d="M62.1697 26.4358H59.4384V20.6282H55.3927V26.4358H52.652V12.8631H55.3927V18.3537H59.4384V12.8631H62.1697V26.4358ZM68.7831 18.9596L70.8246 12.8631H73.8076L70.172 21.5138V26.4358H67.3941V21.5138L63.7492 12.8631H66.7322L68.7831 18.9596ZM75.6295 26.4358V12.8631H79.8243C81.2413 12.8631 82.3164 13.18 83.0497 13.8139C83.7893 14.4416 84.159 15.3644 84.159 16.5825C84.159 17.2723 84.0068 17.8658 83.7022 18.363C83.3977 18.8602 82.9814 19.2237 82.4531 19.4537C83.0621 19.6277 83.5313 19.9788 83.8607 20.507C84.1901 21.0291 84.3548 21.6754 84.3548 22.446C84.3548 23.7635 83.9912 24.7578 83.2641 25.429C82.5432 26.1002 81.4961 26.4358 80.1226 26.4358H75.6295ZM78.3701 20.535V24.1612H80.1226C80.6136 24.1612 80.9865 24.009 81.2413 23.7045C81.4961 23.3999 81.6235 22.968 81.6235 22.4087C81.6235 21.1907 81.1822 20.5661 80.2997 20.535H78.3701ZM78.3701 18.5401H79.7964C80.8715 18.5401 81.4091 17.9839 81.4091 16.8715C81.4091 16.2562 81.2848 15.815 81.0362 15.5478C80.7876 15.2805 80.3836 15.1469 79.8243 15.1469H78.3701V18.5401ZM91.0334 21.4765H89.6724V26.4358H86.9317V12.8631H91.3037C92.6772 12.8631 93.7368 13.2204 94.4825 13.9351C95.2345 14.6435 95.6105 15.6534 95.6105 16.9647C95.6105 18.7669 94.9548 20.0285 93.6435 20.7494L96.0206 26.3053V26.4358H93.0749L91.0334 21.4765ZM89.6724 19.1926H91.2292C91.776 19.1926 92.1862 19.0124 92.4596 18.652C92.7331 18.2853 92.8698 17.7975 92.8698 17.1884C92.8698 15.8274 92.3385 15.1469 91.2758 15.1469H89.6724V19.1926ZM100.928 26.4358H98.1874V12.8631H100.928V26.4358ZM103.803 26.4358V12.8631H107.392C108.977 12.8631 110.239 13.3664 111.177 14.3732C112.122 15.38 112.603 16.7596 112.622 18.5121V20.7121C112.622 22.4957 112.15 23.8971 111.205 24.9163C110.267 25.9293 108.971 26.4358 107.318 26.4358H103.803ZM106.544 15.1469V24.1612H107.364C108.278 24.1612 108.921 23.922 109.294 23.4435C109.667 22.9587 109.863 22.126 109.881 20.9452V18.5867C109.881 17.3189 109.704 16.4365 109.35 15.9393C108.996 15.4359 108.393 15.1718 107.541 15.1469H106.544ZM118.993 21.1969L117.911 22.5579V26.4358H115.171V12.8631H117.911V18.7825L118.778 17.3189L121.305 12.8631H124.661L120.773 18.8291L124.726 26.4358H121.472L118.993 21.1969ZM130.426 21.4765H129.065V26.4358H126.324V12.8631H130.696C132.069 12.8631 133.129 13.2204 133.875 13.9351C134.627 14.6435 135.003 15.6534 135.003 16.9647C135.003 18.7669 134.347 20.0285 133.036 20.7494L135.413 26.3053V26.4358H132.467L130.426 21.4765ZM129.065 19.1926H130.621C131.168 19.1926 131.578 19.0124 131.852 18.652C132.125 18.2853 132.262 17.7975 132.262 17.1884C132.262 15.8274 131.731 15.1469 130.668 15.1469H129.065V19.1926ZM143.937 23.6579H140.199L139.472 26.4358H136.573L140.814 12.8631H143.322L147.591 26.4358H144.664L143.937 23.6579ZM140.796 21.374H143.331L142.064 16.5359L140.796 21.374ZM156.442 20.8986H152.182V26.4358H149.441V12.8631H156.955V15.1469H152.182V18.624H156.442V20.8986ZM168.071 15.1469H164.715V26.4358H161.965V15.1469H158.665V12.8631H168.071V15.1469Z" fill="#236532"/>
<defs>
<linearGradient id="paint0_linear" x1="18.6272" y1="5.18485" x2="39.4852" y2="9.78053" gradientUnits="userSpaceOnUse">
<stop stop-color="#207639"/>
<stop offset="0.519337" stop-color="#A0CC43"/>
<stop offset="0.983425" stop-color="#A1CE54"/>
</linearGradient>
<linearGradient id="paint1_linear" x1="18.6272" y1="5.18485" x2="39.4852" y2="9.78053" gradientUnits="userSpaceOnUse">
<stop stop-color="#207639"/>
<stop offset="0.519337" stop-color="#A0CC43"/>
<stop offset="0.983425" stop-color="#A1CE54"/>
</linearGradient>
<linearGradient id="paint2_linear" x1="38.1651" y1="29.1246" x2="14.5459" y2="36.6782" gradientUnits="userSpaceOnUse">
<stop stop-color="#A1CE54"/>
<stop offset="0.153833" stop-color="#A0CC43"/>
<stop offset="1" stop-color="#207639"/>
</linearGradient>
<linearGradient id="paint3_linear" x1="8.2395" y1="28.0854" x2="9.71316" y2="6.77796" gradientUnits="userSpaceOnUse">
<stop stop-color="#207639"/>
<stop offset="0.519337" stop-color="#A0CC43"/>
<stop offset="0.983425" stop-color="#A1CE54"/>
</linearGradient>
<linearGradient id="paint4_linear" x1="8.2395" y1="28.0854" x2="9.71316" y2="6.77796" gradientUnits="userSpaceOnUse">
<stop stop-color="#207639"/>
<stop offset="0.519337" stop-color="#A0CC43"/>
<stop offset="0.983425" stop-color="#A1CE54"/>
</linearGradient>
<radialGradient id="paint5_radial" cx="0" cy="0" r="1" gradientUnits="userSpaceOnUse" gradientTransform="translate(24.4652 20.8381) rotate(90) scale(15.1481 14.9174)">
<stop stop-color="#BAD531"/>
<stop offset="1" stop-color="#98CA3C"/>
</radialGradient>
</defs>
</svg>
