<svg width="1159" height="306" viewBox="0 0 1159 306" fill="none" xmlns="http://www.w3.org/2000/svg">
<path d="M61.3046 104.403C90.1156 19.6775 254.835 -18.3331 279.454 150.141C278.435 121.683 280.2 90.4661 264.259 62.3057C239.039 17.7503 200.352 11.5054 168.017 11.44C113.89 11.3305 68.6092 51.8779 61.3046 104.403Z" fill="url(#paint0_linear)"/>
<path d="M61.3046 104.403C90.1156 19.6775 254.835 -18.3331 279.454 150.141C278.435 121.683 280.2 90.4661 264.259 62.3057C239.039 17.7503 200.352 11.5054 168.017 11.44C113.89 11.3305 68.6092 51.8779 61.3046 104.403Z" fill="url(#paint1_linear)"/>
<path d="M241.172 96.7643C278.78 183.007 173.264 315.315 41.1146 198.398C59.9985 219.712 78.4887 244.925 108.699 256.521C156.497 274.867 190.325 255.084 215.32 234.571C257.162 200.235 268.937 141.945 241.172 96.7643Z" fill="url(#paint2_linear)"/>
<path d="M126.404 224.392C38.3595 208.374 -20.6062 49.733 142.405 0.570193C114.407 5.76932 83.271 8.62155 57.7654 28.5354C17.4103 60.0432 16.9311 99.228 21.6286 131.22C29.4919 184.772 73.3762 224.903 126.404 224.392Z" fill="url(#paint3_linear)"/>
<path d="M126.404 224.392C38.3595 208.374 -20.6062 49.733 142.405 0.570193C114.407 5.76932 83.271 8.62155 57.7654 28.5354C17.4103 60.0432 16.9311 99.228 21.6286 131.22C29.4919 184.772 73.3762 224.903 126.404 224.392Z" fill="url(#paint4_linear)"/>
<ellipse cx="154" cy="132.645" rx="97" ry="98.5" fill="url(#paint5_radial)"/>
<path d="M132.702 42.5322C132.857 41.6785 132.972 40.2179 133.154 39.3589C133.269 39.2824 133.316 39.2444 133.45 39.2109C134.218 39.0189 131.867 39.2975 131.082 39.4082C129.307 39.659 127.658 40.2153 125.936 40.5756C125.011 40.7693 124.033 41.0107 123.141 41.3155C121.676 41.8161 120.201 42.3969 118.8 43.0583C117.362 43.7376 116.149 44.4842 114.542 44.8998C113.119 45.2679 111.635 45.7109 110.399 46.4782C109.212 47.215 107.882 47.6793 106.609 48.2374C105.389 48.7723 104.236 49.4289 103.041 50.0131C99.9527 51.523 98.7179 55.0464 96.0945 57.1159C94.1362 58.6608 92.0282 59.7925 90.3564 61.7031C89.1347 63.0993 88.1564 64.6306 87.6928 66.4383C87.2442 68.1881 86.5925 69.7912 85.2924 71.0913C83.6641 72.7196 81.7155 73.7355 80.2612 75.5388C79.6313 76.3199 79.226 77.2492 78.5266 77.9804C77.761 78.7807 76.8468 79.4353 75.8795 79.9698C74.5679 80.6946 72.862 81.6937 72.7885 83.4226C72.747 84.3973 72.6885 85.458 72.7967 86.4314C72.8667 87.0617 72.8751 87.6618 73.4544 87.237C74.3523 86.5785 75.8486 86.8589 76.8907 86.8589C78.8779 86.8589 80.9406 86.5226 82.4315 88.1413C82.932 88.6847 82.8655 89.2789 83.5824 89.5224C84.4574 89.8196 85.3076 90.0254 86.0651 90.5911C86.4798 90.9008 86.7631 91.4615 87.0516 90.9693C87.4753 90.2466 87.7479 89.4641 88.2025 88.7497C88.8925 87.6653 89.612 86.6168 90.2413 85.4942C90.5519 84.9401 90.6799 84.3102 90.9812 83.7678C91.1734 83.4219 91.1136 83.0546 91.4415 82.7813C92.0325 82.2889 92.3785 81.6307 92.9131 81.0961C93.94 80.0691 95.1748 80.0335 95.2642 78.4243C95.3594 76.7117 96.0085 75.4162 96.522 73.8288C96.8335 72.8659 97.5005 71.8955 97.0481 70.8776C96.7736 70.2599 96.76 69.0405 97.2619 68.51C97.9387 67.7945 99.0724 66.6954 100.123 66.7343C101.427 66.7826 102.905 67.1576 104.118 67.6221C104.867 67.9089 105.548 67.7012 106.313 67.5481C107.316 67.3476 108.287 67.0896 109.182 66.5781C110.08 66.065 110.381 64.8311 110.95 64.0132C111.711 62.9192 112.14 61.745 113.292 60.9139C113.644 60.6606 114.191 60.6288 114.213 60.1247C114.253 59.2162 114.532 58.3822 114.986 57.5927C115.647 56.4438 116.563 55.6817 117.403 54.7319C118.317 53.6986 119.676 53.5686 120.864 54.2222C121.602 54.6279 121.744 55.0491 121.53 55.8746C121.386 56.4303 121.434 57.0139 121.3 57.5516C121.163 58.0975 120.257 58.6414 119.853 58.9574C118.646 59.9 117.925 60.8447 117.469 62.295C117.249 62.993 117.39 64.3771 116.811 64.8435C115.757 65.6923 114.443 66.3222 113.506 67.2933C112.984 67.8344 113.177 68.8457 113.177 69.5458C113.177 71.0616 110.861 71.0265 109.774 71.1653C109.243 71.233 108.862 71.3944 108.426 71.7079C107.258 72.5473 105.822 73.0914 104.48 73.5904C103.401 73.9914 102.819 74.0983 102.819 75.3086C102.819 75.782 102.743 76.3346 102.901 76.7883C103.185 77.599 103.897 78.561 104.381 79.2628C104.827 79.9091 105.221 79.6951 105.77 79.3861C106.065 79.2206 106.36 78.8154 106.675 78.7367C107.057 78.6412 107.541 78.7202 107.933 78.7202C108.918 78.7202 109.468 79.0932 110.284 79.6739C111.438 80.4959 112.507 80.4959 113.881 80.4959H113.884C114.677 80.4959 115.558 80.6171 116.318 80.348C117.935 79.7753 119.466 79.5396 121.152 79.4272C122.706 79.3236 124.485 79.0027 125.821 78.1119C126.978 77.3404 127.679 75.5635 127.679 74.207C127.679 73.8325 128.117 73.5146 128.386 73.3109C129.895 72.168 132.023 71.9017 133.771 71.3133C136.197 70.4963 136.834 68.921 137.667 66.7425C137.952 65.9981 138.602 63.893 137.643 63.4788C136.795 63.1129 136.449 62.3276 135.966 61.588C135.738 61.2396 135.645 61.187 135.193 61.0783C134.083 60.8115 132.987 60.5382 131.888 60.2563C131.078 60.0486 130.293 59.9493 130.638 58.8916C130.873 58.1731 130.934 57.6294 130.934 56.8857C130.934 54.7549 128.955 53.8428 128.131 52.093C127.748 51.2787 128.001 50.5302 127.745 49.7254C127.481 48.8953 125.311 49.8801 125.311 48.6485C125.311 48.2537 125.647 47.5593 125.821 47.2016C126.173 46.4764 126.281 45.5685 127.095 45.2122C128.735 44.495 130.791 44.7669 132.357 43.6666C132.597 43.4979 132.648 42.8309 132.702 42.5322Z" fill="#8DB431"/>
<path d="M194.661 58.2407C197.445 54.0649 194.121 46.8946 192.94 42.8509C193.64 43.3174 194.411 44.0609 194.89 44.7521C195.207 45.2098 195.639 45.6136 195.925 46.0997C196.587 47.2255 198.566 47.9491 199.655 48.5303C201.072 49.2874 202.292 50.1805 203.758 50.8646C206.588 52.1852 208.898 54.3125 211.567 56.0146C213.134 57.0136 214.762 57.7987 216.436 58.6058L216.452 58.6137C217.984 59.3521 219.197 60.388 220.652 61.2609C222.872 62.5932 224.014 64.5932 225.429 66.6755C226.355 68.0393 227.568 69.161 228.389 70.6102C228.992 71.6754 229.501 72.7025 230.29 73.6545C231.381 74.9719 232.161 76.5421 233.13 77.9622C235.299 81.1444 235.397 84.9536 236.908 88.4065C237.757 90.3485 238.677 92.6021 239.94 94.3025C241.023 95.7608 242.119 97.1765 243.068 98.7305C243.968 100.203 244.553 101.859 245.125 103.48L245.126 103.483C246.061 106.134 246.33 109.17 247.533 111.726C248.53 113.846 249.194 116.013 250.432 118.019C251.218 119.291 251.024 121.011 250.986 122.459C250.932 124.514 250.986 126.53 250.986 128.608C250.986 129.183 250.847 130.827 249.903 130.22C249.363 129.873 249.441 129.713 248.748 129.703C248.086 129.693 247.178 129.766 246.654 129.269C246.135 128.777 246.87 127.776 245.956 127.753C244.981 127.73 244.469 127.773 243.742 128.499C243.188 129.054 243.188 129.414 243.189 130.17L243.189 130.244C243.189 130.781 243.321 131.488 242.924 131.917C242.701 132.157 242.337 132.166 242.154 132.35C241.852 132.652 242.332 134.721 242.322 135.165C242.291 136.588 241.449 136.977 240.33 137.493L240.289 137.512C239.273 137.981 239.475 139.658 238.316 140.207C237.358 140.66 236.353 141.583 235.271 141.615C234.142 141.648 232.608 141.267 231.565 141.711C229.51 142.587 227.856 144.308 225.802 145.104C224.928 145.443 223.652 145.431 222.878 144.864C222.435 144.539 222.243 144.024 221.843 143.697C221.202 143.172 218.232 143.092 217.716 142.987C214.729 142.378 211.73 141.583 209.112 139.954C207.346 138.856 206.788 137.339 205.406 136.032C204.662 135.328 203.053 135.36 202.206 135.25C198.532 134.77 194.817 134.226 191.352 132.831C189.391 132.041 187.337 130.908 186.503 128.86C186.001 127.628 185.898 125.992 185.576 124.673C185.254 123.35 185.015 122.083 184.806 120.738C184.341 117.744 183.124 115.481 181.076 113.218C180.158 112.203 179.116 111.651 177.839 111.184C176.036 110.526 173.422 110.571 171.98 109.199C170.175 107.482 170.989 103.131 171.595 101.029C172.196 98.9397 171.852 96.7184 171.931 94.5672C171.961 93.7587 172.365 93.0844 172.365 92.2329C172.365 91.748 172.49 91.2912 172.593 90.8251C172.67 90.4804 173.459 89.5649 173.772 89.321C174.189 88.9968 175.118 89.16 175.349 88.7675C175.794 88.0099 175.777 87.1297 176.215 86.385C176.455 85.9772 177.519 86.1229 177.936 86.0481L178.004 86.0359C178.951 85.866 179.903 85.6954 180.787 85.3021C181.792 84.8556 181.752 83.4138 182.003 82.5105C182.394 81.1036 182.498 80.7697 183.94 80.104C185.119 79.5598 188.235 78.4773 188.38 76.9514C188.481 75.8947 187.233 76.4886 186.347 76.061C185.073 75.4468 184.664 74.9839 183.471 75.9046C182.66 76.5298 181.556 76.8351 180.812 77.5049C180.506 77.7797 179.018 80.0761 178.874 78.7804C178.687 77.0937 178.862 75.3044 178.862 73.6064C178.862 72.5921 178.42 70.7593 179.729 70.6223C182.091 70.3747 186.299 70.3384 186.864 67.229C186.994 66.5122 186.829 64.7422 187.766 64.5337C189.385 64.174 191.161 65.8689 192.676 65.3279C193.42 65.062 193.157 63.5572 193.157 62.9454C193.157 61.2329 193.706 59.6736 194.661 58.2407Z" fill="#8DB431"/>
<path d="M138.76 191.427C138.76 188.517 138.345 185.8 137.917 182.909C138.726 184.065 137.568 180.865 137.971 180.142C139.28 177.785 142.141 176.363 142.141 173.441C142.141 171.36 141.863 168.998 143.394 167.354C148.257 162.13 157.345 163.909 163.534 165.249C165.289 165.629 166.276 166.174 167.705 166.99C172.76 169.879 178.691 170.883 183.411 174.493C185.465 176.063 187.637 179.109 185.778 181.732C185.264 182.459 184.364 182.831 184.3 183.811C184.261 184.423 184.3 185.052 184.3 185.665C184.3 186.839 183.989 188.35 184.789 189.31C186.068 190.845 188.133 192.616 188.133 194.783C188.133 195.806 188.384 197.205 187.632 198.015C186.425 199.315 185.712 200.838 185.302 202.574C185.08 203.516 185.553 204.617 184.526 205.104C183.254 205.706 182.348 206.378 181.42 207.534C178.973 210.578 180.435 216.995 175.658 217.654C174.216 217.853 173.815 218.635 172.427 219.257C169.426 220.602 166.049 220.436 162.833 220.384C162.314 220.376 161.508 220.331 161.33 219.708C161.243 219.403 161.418 218.97 161.167 218.719C160.974 218.526 160.444 218.522 160.227 218.481C159.096 218.265 157.983 217.984 156.883 217.641C155.146 217.099 152.899 216.517 151.535 215.224C150.18 213.94 147.061 214.247 145.36 213.821C143.366 213.323 143.386 212.369 143.72 210.703C144.122 208.691 144.316 207.341 143.669 205.329C143.461 204.68 142.966 204.404 143.056 203.689C143.235 202.257 144.396 201.364 144.396 199.756C144.396 199.233 144.596 198.342 144.145 197.965C143.451 197.383 142.648 197.093 142.191 196.261C141.472 194.951 140.186 194.929 139.261 193.781C138.67 193.048 138.76 192.32 138.76 191.427Z" fill="#8DB431"/>
<path d="M189.711 209.788C191.552 205.647 197.086 204.576 198.053 199.643C197.48 199.643 196.274 199.464 196.625 198.954C197.381 197.855 198.638 197.405 199.907 197.389C201.796 197.364 202.06 198.039 202.111 199.994C202.152 201.538 202.719 204.671 201.61 205.78C200.217 207.173 198.668 207.645 196.976 208.561C196.037 209.069 195.423 209.037 194.621 209.838C193.564 210.896 192.968 211.592 191.465 211.592C190.033 211.592 188.967 211.463 189.711 209.788Z" fill="#8DB431"/>
<path d="M65.664 146.712C64.526 145.499 64.1224 144.449 62.5001 144.645C61.6672 145.2 60.4024 146.027 60.1029 147.001C59.7083 148.283 60.5596 149.574 60.8043 150.771C61.1169 152.299 61.2622 153.805 61.4431 155.342C61.5999 156.675 62.1853 158.005 62.3824 159.363C62.5287 160.37 62.6981 161.476 63.0087 162.444C63.6042 164.3 64.6227 165.955 65.7266 167.542C66.9966 169.367 67.7728 171.425 69.0958 173.215C69.7816 174.143 70.6027 174.879 71.2626 175.808C72.4463 177.474 73.2635 179.291 74.2812 181.043C75.6583 183.415 76.873 187.243 80.0301 187.243C81.1161 187.243 80.3953 184.853 80.3683 184.312C80.337 183.687 80.0137 182.964 79.8047 182.384C79.3718 181.181 79.5837 179.952 79.1033 178.764C78.5035 177.28 77.9456 174.215 76.3102 173.316C74.3309 172.227 74.2034 169.503 73.2541 167.604C72.8347 166.765 72.5958 165.837 71.9265 165.149C70.8252 164.017 70.382 162.787 69.5467 161.492C68.0701 159.203 67.0008 156.679 66.8288 153.927C66.789 153.29 66.6159 152.729 66.6159 152.073C66.6159 151.224 67.097 150.52 67.0668 149.643C67.0377 148.801 66.2259 147.312 65.664 146.712Z" fill="#8DB431"/>
<path d="M142.584 226.104C142.211 227.223 142.583 228.713 142.873 229.917C143.678 229.803 144.685 229.829 145.099 229.875C146.001 229.976 146.762 230.566 147.67 230.624C148.806 230.697 149.9 230.878 151.046 230.878C152.115 230.878 156.767 231.409 156.767 229.607C156.767 228.903 156.513 228.095 156.513 227.319C156.513 224.762 156.05 221.622 156.908 219.168C158.033 215.954 158.547 212.91 158.547 209.463V196.707V191.664C158.547 189.836 157.784 188.015 157.784 186.183C157.784 184.228 157.53 182.355 157.53 180.392C157.53 179.13 157.605 177.276 159.31 177.227C160.623 177.19 161.58 177.736 162.813 177.736C164.77 177.736 165.236 178.307 166.062 179.883C166.254 180.249 166.633 181.586 166.938 181.748C167.51 182.05 168.703 181.804 169.311 181.804C171.089 181.804 171.582 183.906 172.673 184.997C173.477 185.8 175.527 185.364 176.6 185.364C178.622 185.364 180.2 185.017 181.671 186.635C182.862 187.945 183.221 188.948 183.847 190.548C184.153 191.33 185.314 191.402 186.008 191.848C186.888 192.414 187.784 192.968 188.862 192.992C190.009 193.018 191.835 193.147 192.421 191.975C192.733 191.351 192.873 190.91 192.873 190.195C192.873 188.794 194.695 190.483 195.416 190.831C196.88 191.536 197.698 192.564 199.032 191.467C199.622 190.981 200.665 189.339 201.307 189.178C202.674 188.836 207.621 189.87 207.621 187.907C207.621 186.802 207.367 185.752 207.367 184.658C207.367 183.969 207.346 183.592 206.858 183.076C206.389 182.579 206.799 182.124 206.844 181.536C206.903 180.775 206.743 179.958 206.858 179.205C206.967 178.498 208.898 178.499 209.494 178.499H209.514C211.217 178.499 213.833 179.334 215.391 178.697C216.592 178.205 216.974 175.223 218.527 175.193C220.933 175.147 225.486 175.142 227.186 173.159C228.084 172.111 227.454 168.942 227.454 167.579V158.411C227.454 157.279 227.8 156.096 226.494 155.727C224.841 155.261 221.189 154.628 220.857 152.309C220.751 151.566 220.595 149.944 220.9 149.258C221.558 147.777 220.713 147.068 222.962 147.732C224.177 148.091 224.707 148.948 225.477 147.676C225.854 147.051 226.584 146.173 226.677 145.43C226.888 143.743 225.013 142.012 223.654 141.248C222.416 140.552 220.347 139.712 219.883 138.268C219.438 136.884 219.737 135.196 218.244 134.256C217.301 133.662 216.074 133.223 214.995 132.984C214.493 132.874 212.487 132.586 212.198 132.08C211.807 131.396 211.241 130.915 210.87 130.187C210.598 129.654 210.373 128.731 210.023 128.28C209.362 127.431 208.043 125.425 207.056 125.356C206.452 125.314 205.535 125.225 204.965 125.483C204.265 125.802 202.682 125.356 201.886 125.356C200.165 125.356 199.342 125.135 198.34 123.576C197.821 122.768 197.798 121.458 197.987 120.511C198.185 119.522 199.08 117.426 198.213 116.457C197.497 115.656 198.073 113.66 196.49 113.66C195.098 113.66 193.647 114.143 192.224 114.168C191.58 114.18 190.236 114.426 189.723 114.027C188.777 113.291 189.635 111.515 189.808 110.736C190.216 108.898 189.969 108.398 191.687 107.36C193.076 106.519 193.042 103.431 192.308 102.161C191.718 101.139 190.804 100.685 190.02 99.8728C189.52 99.3553 189.514 98.3302 188.791 98.1494C187.768 97.8935 184.886 98.1003 184.483 96.9911C184.229 96.2944 184.341 95.6824 184.214 94.9851C183.997 93.7907 182.083 92.7617 181.135 92.2525L181.121 92.2447C178.885 91.0433 178.112 91.5268 176.346 92.7532C175.319 93.4666 173.256 92.8097 171.995 92.8097C169.858 92.8097 167.703 92.5555 165.539 92.5555C164.145 92.5555 164.224 92.5439 164.522 91.4112C164.758 90.5166 164.462 89.9031 164.197 89.0522C164.008 88.4408 163.947 86.411 164.254 85.8879C165.034 84.5565 165.412 84.3325 165.412 82.7661C165.412 81.5817 165.653 80.792 164.607 80.068C163.732 79.4618 163.204 78.5706 162.093 78.5706C161.011 78.5706 159.984 78.8039 158.914 78.8249C157.394 78.8547 155.581 79.0703 154.535 77.7513C152.872 75.6546 150.914 76.2797 148.419 75.4063C147.254 74.9987 145.466 74.9947 144.675 75.929C143.393 77.4446 141.813 78.7948 139.901 79.4323C138.74 79.8192 137.496 80.0326 136.482 80.746C136.162 80.9714 135.984 81.3847 135.903 81.749C135.683 82.7377 134.44 82.6389 133.713 82.6389C132.375 82.6389 130.136 82.0785 129.249 83.2605L129.204 83.3204C128.559 84.181 127.708 85.3166 126.735 85.8032C125.731 86.3053 124.38 86.7424 123.331 86.9756C121.453 87.393 121.212 90.0458 119.7 90.9733C118.925 91.4487 117.056 92.0469 116.084 92.0469C113.826 92.0469 111.725 97.0423 111.154 98.7568C110.609 100.391 112.081 100.185 111.606 101.61C110.962 103.542 109.378 104.85 108.399 106.54C108.079 107.093 107.417 107.269 107.071 107.713C106.426 108.542 108.338 108.855 108.767 109.027C109.582 109.353 110.384 109.567 111.253 109.592C112.187 109.618 112.747 110.325 113.541 110.722C114.263 111.083 116.885 111.695 115.194 113.01C114.521 113.534 112.583 113.151 111.818 113.151H105.009C103.52 113.151 102.887 113.297 102.099 114.479C101.27 115.723 100.234 116.781 99.1891 117.841C98.2699 118.774 97.7316 119.944 96.717 120.779C96.2801 121.139 93.3165 122.223 93.8211 123.011C94.0504 123.37 94.8821 123.172 94.9653 123.463C95.517 125.394 91.0726 127.02 89.9506 127.956C88.8584 128.866 89.3373 131.419 89.3855 132.674C89.416 133.467 90.8951 134.536 91.4056 135.132C91.9864 135.809 93.0368 135.699 93.5951 136.417C94.2392 137.245 94.4709 137.414 94.4709 138.564C94.4709 138.858 94.6563 139.85 94.2167 139.85C93.7101 139.85 92.7557 139.716 92.3096 139.468C91.8169 139.195 91.2979 139.567 90.7699 139.595C89.441 139.667 87.5049 140.129 86.6451 141.234C85.999 142.065 86.7558 142.109 86.8287 142.802C86.972 144.163 86.8428 145.602 86.8428 146.969C86.8428 148.298 86.493 150.131 86.857 151.405C86.9603 151.767 87.1732 152.429 87.4926 152.69C87.8505 152.983 89.1076 152.924 89.1313 153.326C89.2212 154.855 87.8197 154.435 86.8428 155.36C85.1304 156.983 80.1148 154.582 81.1359 158.666C81.6535 160.736 82.7346 161.31 84.1024 162.677C84.8476 163.423 86.1604 162.742 87.0971 163.186C87.6275 163.437 88.4603 163.354 88.877 163.751C90.0287 164.848 90.4063 166.528 90.6569 168.031C90.8015 168.899 91.3785 169.492 91.4197 170.419C91.4546 171.205 91.6221 171.578 92.0554 172.156C92.4216 172.644 93.249 172.433 93.4539 172.792C93.749 173.308 94.8662 173.562 95.375 173.809C97.1061 174.65 99.1301 175.702 101.082 175.702C101.838 175.702 102.94 175.492 103.625 175.815C104.667 176.307 105.312 177.949 105.899 178.866C106.332 179.543 106.57 179.881 107.241 180.279C107.622 180.504 108.465 180.354 108.71 180.66C109.583 181.752 110.66 184.347 112.27 184.347C113.146 184.347 113.999 183.838 114.926 183.838C115.504 183.838 115.826 183.784 116.338 183.528C118.442 182.476 123.843 181.89 125.223 184.22C125.971 185.482 126.131 185.71 127.597 185.477C129.345 185.199 131.041 184.916 132.809 184.856C133.785 184.822 135.064 183.06 135.55 182.369C136.309 181.291 137.158 180.801 138.333 180.279C139.554 179.736 139.162 178.791 139.505 177.849C140.019 176.435 142.221 175.916 143.545 176.267C144.617 176.55 145.784 178.015 146.144 178.951C146.317 179.399 146.957 179.735 147.416 179.77C148.116 179.824 148.281 180.437 148.743 180.9C149.579 181.736 149.845 184.172 149.916 185.265C150.043 187.23 150.919 188.949 150.919 190.845C150.919 192.101 150.986 193.377 150.905 194.631C150.844 195.575 150.41 196.404 150.41 197.371V201.764V201.765C150.41 203.239 150.41 204.491 149.958 205.903C149.732 206.611 149.393 207.495 149.393 208.248C149.393 209.678 148.63 210.599 148.63 212.062V215.566C148.63 218.643 147.472 219.577 145.452 221.598C144.746 222.303 143.787 222.806 143.432 223.773C143.152 224.537 142.838 225.342 142.584 226.104Z" fill="#236532"/>
<path d="M399.173 167H381.412V129.236H355.105V167H337.284V78.7436H355.105V114.446H381.412V78.7436H399.173V167ZM442.176 118.386L455.451 78.7436H474.848L451.208 134.995V167H433.144V134.995L409.443 78.7436H428.84L442.176 118.386ZM486.694 167V78.7436H513.972C523.185 78.7436 530.176 80.8045 534.945 84.9264C539.753 89.0079 542.158 95.0088 542.158 102.929C542.158 107.415 541.168 111.274 539.188 114.507C537.208 117.74 534.5 120.104 531.065 121.599C535.025 122.73 538.076 125.014 540.218 128.448C542.36 131.843 543.431 136.046 543.431 141.057C543.431 149.624 541.067 156.089 536.339 160.454C531.651 164.818 524.842 167 515.911 167H486.694ZM504.515 128.63V152.21H515.911C519.104 152.21 521.528 151.22 523.185 149.24C524.842 147.26 525.67 144.451 525.67 140.814C525.67 132.894 522.801 128.832 517.063 128.63H504.515ZM504.515 115.659H513.79C520.781 115.659 524.276 112.042 524.276 104.808C524.276 100.808 523.468 97.9386 521.852 96.2009C520.235 94.4633 517.608 93.5945 513.972 93.5945H504.515V115.659ZM586.858 134.752H578.008V167H560.187V78.7436H588.616C597.547 78.7436 604.437 81.0672 609.286 85.7144C614.176 90.3212 616.62 96.8879 616.62 105.415C616.62 117.134 612.357 125.337 603.831 130.024L619.288 166.151V167H600.133L586.858 134.752ZM578.008 119.902H588.131C591.687 119.902 594.354 118.73 596.132 116.386C597.91 114.002 598.799 110.829 598.799 106.869C598.799 98.0194 595.344 93.5945 588.434 93.5945H578.008V119.902ZM651.198 167H633.377V78.7436H651.198V167ZM669.894 167V78.7436H693.231C703.536 78.7436 711.739 82.0169 717.841 88.5634C723.984 95.1098 727.116 104.081 727.237 115.477V129.782C727.237 141.38 724.166 150.492 718.023 157.12C711.921 163.707 703.496 167 692.746 167H669.894ZM687.715 93.5945V152.21H693.05C698.99 152.21 703.172 150.654 705.597 147.542C708.022 144.39 709.295 138.975 709.416 131.297V115.962C709.416 107.718 708.264 101.98 705.961 98.7468C703.657 95.4735 699.737 93.7561 694.201 93.5945H687.715ZM768.664 132.934L761.632 141.784V167H743.811V78.7436H761.632V117.235L767.27 107.718L783.697 78.7436H805.518L780.241 117.538L805.943 167H784.788L768.664 132.934ZM843.005 134.752H834.155V167H816.334V78.7436H844.763C853.694 78.7436 860.584 81.0672 865.433 85.7144C870.323 90.3212 872.768 96.8879 872.768 105.415C872.768 117.134 868.504 125.337 859.978 130.024L875.435 166.151V167H856.28L843.005 134.752ZM834.155 119.902H844.278C847.834 119.902 850.501 118.73 852.28 116.386C854.058 114.002 854.947 110.829 854.947 106.869C854.947 98.0194 851.492 93.5945 844.581 93.5945H834.155V119.902ZM930.864 148.937H906.557L901.829 167H882.978L910.558 78.7436H926.863L954.625 167H935.592L930.864 148.937ZM910.437 134.086H926.924L918.68 102.626L910.437 134.086ZM1012.18 130.994H984.475V167H966.654V78.7436H1015.51V93.5945H984.475V116.204H1012.18V130.994ZM1087.79 93.5945H1065.97V167H1048.09V93.5945H1026.63V78.7436H1087.79V93.5945Z" fill="#236532"/>
<defs>
<linearGradient id="paint0_linear" x1="116.039" y1="30.8608" x2="251.668" y2="60.7441" gradientUnits="userSpaceOnUse">
<stop stop-color="#207639"/>
<stop offset="0.519337" stop-color="#A0CC43"/>
<stop offset="0.983425" stop-color="#A1CE54"/>
</linearGradient>
<linearGradient id="paint1_linear" x1="116.039" y1="30.8608" x2="251.668" y2="60.7441" gradientUnits="userSpaceOnUse">
<stop stop-color="#207639"/>
<stop offset="0.519337" stop-color="#A0CC43"/>
<stop offset="0.983425" stop-color="#A1CE54"/>
</linearGradient>
<linearGradient id="paint2_linear" x1="243.084" y1="186.528" x2="89.5" y2="235.645" gradientUnits="userSpaceOnUse">
<stop stop-color="#A1CE54"/>
<stop offset="0.153833" stop-color="#A0CC43"/>
<stop offset="1" stop-color="#207639"/>
</linearGradient>
<linearGradient id="paint3_linear" x1="48.4929" y1="179.771" x2="58.0753" y2="41.2199" gradientUnits="userSpaceOnUse">
<stop stop-color="#207639"/>
<stop offset="0.519337" stop-color="#A0CC43"/>
<stop offset="0.983425" stop-color="#A1CE54"/>
</linearGradient>
<linearGradient id="paint4_linear" x1="48.4929" y1="179.771" x2="58.0753" y2="41.2199" gradientUnits="userSpaceOnUse">
<stop stop-color="#207639"/>
<stop offset="0.519337" stop-color="#A0CC43"/>
<stop offset="0.983425" stop-color="#A1CE54"/>
</linearGradient>
<radialGradient id="paint5_radial" cx="0" cy="0" r="1" gradientUnits="userSpaceOnUse" gradientTransform="translate(154 132.645) rotate(90) scale(98.5 97)">
<stop stop-color="#BAD531"/>
<stop offset="1" stop-color="#98CA3C"/>
</radialGradient>
</defs>
</svg>
