<svg width="196" height="42" viewBox="0 0 196 42" fill="none" xmlns="http://www.w3.org/2000/svg">
<g opacity="0.432">
<path fill-rule="evenodd" clip-rule="evenodd" d="M21.2276 35.2078C30.8841 35.2078 38.7122 26.9609 38.7122 16.7878C38.7122 10.4444 34.9074 4.33747 30.1762 0.63855C37.8235 3.80443 43.1718 11.0683 43.1718 19.5231C43.1718 30.8883 33.5075 40.1016 21.5859 40.1016C9.66433 40.1016 0 30.8883 0 19.5231C0 11.8577 4.39624 5.17123 10.9162 1.63012C6.78936 5.37485 3.74306 10.9823 3.74306 16.7878C3.74306 26.9609 11.5712 35.2078 21.2276 35.2078Z" fill="white"/>
<path fill-rule="evenodd" clip-rule="evenodd" d="M20.8962 28.3494C27.8488 28.3494 33.4851 22.9721 33.4851 15.2086C33.4851 10.6824 31.3681 6.26442 28.3422 3.36694C33.3077 5.9885 36.697 11.2418 36.697 17.2951C36.697 25.9684 29.7386 32.9996 21.1551 32.9996C12.5716 32.9996 5.61328 25.9684 5.61328 17.2951C5.61328 11.7517 8.4556 6.87918 12.7479 4.08433C10.1017 6.96588 8.30727 11.0413 8.30727 15.2086C8.30727 22.9721 13.9435 28.3494 20.8962 28.3494Z" fill="white"/>
<path d="M13.0557 13.9674L25.9684 -6.10352e-05L20.8466 10.0995H29.1425L15.9412 23.7805L20.8466 13.9674H13.0557Z" fill="white"/>
<path d="M57.2251 9.67426H59.8003V27.5862H57.2251V19.7175H53.4195V27.5862H50.8443V9.67426H53.4195V17.6288H57.2251V9.67426ZM66.3239 31.5348H64.6071V29.4747H65.7803C66.6005 29.4747 67.0965 29.1599 67.2681 28.5304L67.5543 27.3573H66.1522L63.2337 13.6229H65.8661L67.9835 25.3257L69.9578 13.6229H72.5616L69.6144 28.931C69.1948 30.6669 68.0979 31.5348 66.3239 31.5348ZM80.1097 13.5943H81.1112C82.847 13.5943 83.715 14.4431 83.715 16.1409V25.0682C83.715 26.7469 82.847 27.5862 81.1112 27.5862H80.1097C79.175 27.5862 78.5837 27.2142 78.3357 26.4703V27.5862H75.7605V8.44389H78.3357V14.7102C78.5837 13.9663 79.175 13.5943 80.1097 13.5943ZM81.1398 24.6676V16.5128C81.1398 16.1886 81.0826 15.9692 80.9681 15.8547C80.8536 15.7403 80.6247 15.6831 80.2814 15.6831H79.2799C78.9366 15.6831 78.6886 15.7594 78.536 15.912C78.4024 16.0646 78.3357 16.3221 78.3357 16.6845V24.4959C78.3357 24.8584 78.4024 25.1159 78.536 25.2685C78.6886 25.4211 78.9366 25.4974 79.2799 25.4974H80.2814C80.6247 25.4974 80.8536 25.4497 80.9681 25.3543C81.0826 25.2399 81.1398 25.011 81.1398 24.6676ZM92.6238 13.5943H93.196V15.8261H92.166C90.9642 15.8261 90.3633 16.5319 90.3633 17.9435V27.5862H87.7881V13.6229H90.3633V15.3397C90.5159 14.8437 90.783 14.4336 91.1645 14.1093C91.5651 13.766 92.0515 13.5943 92.6238 13.5943ZM96.2657 10.9619V8.41527H98.9554V10.9619H96.2657ZM98.8981 27.5862H96.3229V13.6229H98.8981V27.5862ZM108.333 8.44389H110.908V27.5862H108.333V26.4703C108.085 27.2142 107.494 27.5862 106.559 27.5862H105.529C103.812 27.5862 102.954 26.7469 102.954 25.0682V16.1409C102.954 14.4431 103.812 13.5943 105.529 13.5943H106.559C107.494 13.5943 108.085 13.9663 108.333 14.7102V8.44389ZM106.387 25.4974H107.389C107.732 25.4974 107.97 25.4211 108.104 25.2685C108.257 25.1159 108.333 24.8584 108.333 24.4959V16.6845C108.333 16.3221 108.257 16.0646 108.104 15.912C107.97 15.7594 107.732 15.6831 107.389 15.6831H106.387C106.044 15.6831 105.815 15.7403 105.7 15.8547C105.586 15.9692 105.529 16.1886 105.529 16.5128V24.6676C105.529 25.011 105.586 25.2399 105.7 25.3543C105.815 25.4497 106.044 25.4974 106.387 25.4974ZM124.595 9.67426L120.818 18.6588L124.567 27.5862H121.763L118.129 18.6588L121.82 9.67426H124.595ZM115.382 27.5862V9.67426H117.957V27.5862H115.382ZM132.687 13.5943H133.259V15.8261H132.229C131.027 15.8261 130.426 16.5319 130.426 17.9435V27.5862H127.851V13.6229H130.426V15.3397C130.579 14.8437 130.846 14.4336 131.228 14.1093C131.628 13.766 132.115 13.5943 132.687 13.5943ZM141.594 13.6229H144.169V27.5862H141.594V26.4703C141.346 27.2142 140.754 27.5862 139.82 27.5862H138.79C137.073 27.5862 136.214 26.7469 136.214 25.0682V16.1695C136.214 14.4718 137.073 13.6229 138.79 13.6229H139.82C140.754 13.6229 141.346 13.9949 141.594 14.7388V13.6229ZM139.648 25.4974H140.649C140.993 25.4974 141.231 25.4211 141.365 25.2685C141.517 25.1159 141.594 24.8584 141.594 24.4959V16.7131C141.594 16.3507 141.517 16.0932 141.365 15.9406C141.231 15.788 140.993 15.7117 140.649 15.7117H139.648C139.305 15.7117 139.076 15.7689 138.961 15.8833C138.847 15.9787 138.79 16.1981 138.79 16.5414V24.6676C138.79 25.011 138.847 25.2399 138.961 25.3543C139.076 25.4497 139.305 25.4974 139.648 25.4974ZM153.364 10.6185H152.162C151.819 10.6185 151.59 10.6757 151.475 10.7902C151.361 10.8856 151.304 11.1049 151.304 11.4483V13.6229H153.364V15.7117H151.304V27.5862H148.728V15.7117H147.326V13.6229H148.728V10.9619C148.728 9.28321 149.615 8.44389 151.389 8.44389H153.364V10.6185ZM161.195 15.7117H159.278V24.5532C159.278 24.8965 159.325 25.1254 159.421 25.2399C159.535 25.3353 159.764 25.383 160.107 25.383H161.195V27.5862H159.363C157.57 27.5862 156.674 26.7469 156.674 25.0682V15.7117H155.358V13.6229H156.674V11.248H159.278V13.6229H161.195V15.7117Z" fill="white"/>
</g>
</svg>
