<svg width="248" height="121" viewBox="0 0 248 121" fill="none" xmlns="http://www.w3.org/2000/svg">
<g style="mix-blend-mode:lighten">
<path d="M80.1187 25.0141C78.8024 25.1616 77.8548 26.3483 78.0023 27.6646C78.1498 28.981 79.3364 29.9285 80.6528 29.781L80.1187 25.0141ZM153.651 47.2L156.03 46.8972L153.651 47.2ZM84.9018 79.1816L87.2837 79.4623L84.9018 79.1816ZM245.533 120.398C246.857 120.402 247.935 119.332 247.939 118.007C247.943 116.683 246.872 115.606 245.547 115.602L245.533 120.398ZM80.3857 27.3976C80.6528 29.781 80.6526 29.7811 80.6526 29.781C80.653 29.781 80.6534 29.781 80.6541 29.7809C80.6556 29.7807 80.6582 29.7804 80.6618 29.78C80.669 29.7792 80.6803 29.778 80.6958 29.7763C80.7268 29.7729 80.7743 29.7678 80.8377 29.7611C80.9646 29.7477 81.1552 29.728 81.4054 29.7033C81.906 29.6539 82.6449 29.5846 83.5892 29.5058C85.478 29.3482 88.186 29.1529 91.4486 29.0039C97.9826 28.7056 106.7 28.5948 115.5 29.3324C124.339 30.0733 133.072 31.6563 139.74 34.6438C146.404 37.6293 150.544 41.7812 151.272 47.5028L156.03 46.8972C155.001 38.8104 149.104 33.5827 141.701 30.2663C134.303 26.9517 124.939 25.3101 115.901 24.5525C106.823 23.7916 97.8837 23.9084 91.2298 24.2122C87.8983 24.3643 85.1296 24.5639 83.1902 24.7257C82.2204 24.8066 81.4573 24.8782 80.9344 24.9298C80.673 24.9556 80.4715 24.9764 80.3342 24.9909C80.2655 24.9982 80.2129 25.0038 80.1768 25.0078C80.1587 25.0097 80.1448 25.0112 80.1351 25.0123C80.1303 25.0129 80.1265 25.0133 80.1238 25.0136C80.1224 25.0137 80.1211 25.0139 80.1204 25.0139C80.1194 25.0141 80.1187 25.0141 80.3857 27.3976ZM151.272 47.5028C151.952 52.8503 151.451 56.5913 150.291 59.2128C149.16 61.7685 147.312 63.4663 144.828 64.6026C142.279 65.7686 139.046 66.3444 135.256 66.5123C131.48 66.6795 127.317 66.4373 122.975 66.0755C114.471 65.3668 105.057 64.15 97.6601 65.1326C93.9078 65.6311 90.3744 66.7217 87.6221 68.9491C84.7971 71.2355 83.0358 74.5234 82.5199 78.9008L87.2837 79.4623C87.6742 76.1487 88.9196 74.0699 90.6397 72.6777C92.4326 71.2267 94.983 70.3271 98.2917 69.8876C105.016 68.9942 113.633 70.1103 122.577 70.8556C126.958 71.2207 131.373 71.4857 135.468 71.3043C139.549 71.1235 143.478 70.4949 146.824 68.9646C150.234 67.4046 153.013 64.9144 154.677 61.1543C156.312 57.46 156.776 52.7573 156.03 46.8972L151.272 47.5028ZM82.5199 78.9008C81.8376 84.6897 84.4337 89.6048 88.9019 93.6321C93.317 97.6115 99.7284 100.903 107.272 103.664C122.388 109.197 142.833 112.878 163.24 115.341C183.687 117.808 204.258 119.072 219.705 119.719C227.432 120.043 233.883 120.213 238.405 120.302C240.667 120.346 242.446 120.37 243.661 120.383C244.268 120.39 244.735 120.394 245.05 120.396C245.208 120.397 245.328 120.398 245.409 120.398C245.449 120.398 245.48 120.398 245.501 120.398C245.511 120.398 245.519 120.398 245.524 120.398C245.527 120.398 245.529 120.398 245.53 120.398C245.532 120.398 245.533 120.398 245.54 118C245.547 115.602 245.547 115.602 245.546 115.602C245.545 115.602 245.543 115.602 245.541 115.602C245.536 115.602 245.529 115.602 245.52 115.602C245.5 115.602 245.471 115.601 245.432 115.601C245.354 115.601 245.237 115.6 245.083 115.599C244.774 115.597 244.313 115.593 243.712 115.587C242.51 115.574 240.746 115.55 238.5 115.506C234.007 115.418 227.592 115.249 219.906 114.927C204.528 114.282 184.092 113.026 163.815 110.578C143.498 108.126 123.501 104.497 108.921 99.1595C101.616 96.4856 95.8657 93.4511 92.1133 90.069C88.4141 86.7349 86.8369 83.2526 87.2837 79.4623L82.5199 78.9008Z" fill="url(#paint0_linear)"/>
<rect x="28.3008" width="11.4406" height="53.5904" rx="5.72032" fill="url(#paint1_linear)"/>
<rect y="49.376" width="11.4406" height="25.892" rx="5.72032" transform="rotate(-90 0 49.376)" fill="url(#paint2_linear)"/>
<rect y="18.064" width="11.4406" height="25.892" rx="5.72032" transform="rotate(-90 0 18.064)" fill="url(#paint3_linear)"/>
<path d="M42.1504 9.97817C42.1504 6.85149 44.6851 4.31683 47.8117 4.31683H50.6424C61.7993 3.93199 71.0531 12.8721 71.0531 24.0356V28.2485C71.0531 39.6399 62.027 48.9827 50.6424 49.3754H47.8117C44.6851 49.3754 42.1504 46.8407 42.1504 43.714V9.97817Z" fill="url(#paint4_linear)"/>
</g>
<defs>
<linearGradient id="paint0_linear" x1="162.963" y1="-9.33276" x2="162.963" y2="112.079" gradientUnits="userSpaceOnUse">
<stop stop-color="white"/>
<stop offset="1" stop-color="white" stop-opacity="0"/>
</linearGradient>
<linearGradient id="paint1_linear" x1="34.0211" y1="0" x2="34.0211" y2="53.5904" gradientUnits="userSpaceOnUse">
<stop stop-color="white"/>
<stop offset="1" stop-color="white" stop-opacity="0"/>
</linearGradient>
<linearGradient id="paint2_linear" x1="5.72032" y1="49.376" x2="5.72032" y2="75.268" gradientUnits="userSpaceOnUse">
<stop stop-color="white"/>
<stop offset="1" stop-color="white" stop-opacity="0"/>
</linearGradient>
<linearGradient id="paint3_linear" x1="5.72032" y1="18.064" x2="5.72032" y2="43.9559" gradientUnits="userSpaceOnUse">
<stop stop-color="white"/>
<stop offset="1" stop-color="white" stop-opacity="0"/>
</linearGradient>
<linearGradient id="paint4_linear" x1="56.6017" y1="3.61279" x2="56.6017" y2="49.3754" gradientUnits="userSpaceOnUse">
<stop stop-color="white"/>
<stop offset="1" stop-color="white" stop-opacity="0"/>
</linearGradient>
</defs>
</svg>
