<svg width="334" height="71" viewBox="0 0 334 71" fill="none" xmlns="http://www.w3.org/2000/svg">
<path fill-rule="evenodd" clip-rule="evenodd" d="M36.1239 59.9182C52.5578 59.9182 65.8801 45.8832 65.8801 28.5701C65.8801 17.7712 59.4009 7.375 51.3455 1.08057C64.3653 6.46625 73.472 18.8309 73.472 33.2233C73.472 52.5653 57.0247 68.245 36.736 68.245C16.4473 68.245 0 52.5653 0 33.2233C0 20.1784 7.48129 8.79932 18.5767 2.77274C11.5528 9.14571 6.36776 18.6893 6.36776 28.5701C6.36776 45.8832 19.6901 59.9182 36.1239 59.9182Z" fill="url(#paint0_linear)"/>
<path fill-rule="evenodd" clip-rule="evenodd" d="M35.5598 48.2465C47.3922 48.2465 56.9843 39.0952 56.9843 25.8827C56.9843 18.18 53.3817 10.6616 48.2323 5.73047C56.6828 10.192 62.4506 19.1323 62.4506 29.4339C62.4506 44.1947 50.6086 56.1607 36.0007 56.1607C21.3928 56.1607 9.55078 44.1947 9.55078 29.4339C9.55078 20.0004 14.3875 11.7084 21.6919 6.95188C17.1889 11.8558 14.1354 18.7912 14.1354 25.8827C14.1354 39.0952 23.7274 48.2465 35.5598 48.2465Z" fill="url(#paint1_linear)"/>
<path d="M22.2188 23.7706L44.1943 0L35.4778 17.188H49.5962L27.1295 40.471L35.4778 23.7706H22.2188Z" fill="url(#paint2_linear)"/>
<path d="M97.3913 17.5165H101.774V48H97.3913V34.6087H90.9148V48H86.5322V17.5165H90.9148V31.0539H97.3913V17.5165ZM112.876 54.72H109.954V51.2139H111.951C113.347 51.2139 114.191 50.6783 114.483 49.607L114.97 47.6104H112.584L107.617 24.2365H112.097L115.7 44.153L119.06 24.2365H123.492L118.476 50.2887C117.762 53.2429 115.895 54.72 112.876 54.72ZM136.338 24.1878H138.042C140.996 24.1878 142.473 25.6325 142.473 28.5218V43.7148C142.473 46.5716 140.996 48 138.042 48H136.338C134.747 48 133.74 47.367 133.318 46.1009V48H128.936V15.4226H133.318V26.087C133.74 24.8209 134.747 24.1878 136.338 24.1878ZM138.091 43.033V29.1548C138.091 28.6029 137.993 28.2296 137.798 28.0348C137.604 27.84 137.214 27.7426 136.63 27.7426H134.925C134.341 27.7426 133.919 27.8725 133.659 28.1322C133.432 28.3919 133.318 28.8302 133.318 29.447V42.7409C133.318 43.3577 133.432 43.7959 133.659 44.0557C133.919 44.3154 134.341 44.4452 134.925 44.4452H136.63C137.214 44.4452 137.604 44.3641 137.798 44.2017C137.993 44.007 138.091 43.6174 138.091 43.033ZM157.635 24.1878H158.609V27.9861H156.855C154.81 27.9861 153.788 29.1873 153.788 31.5896V48H149.405V24.2365H153.788V27.1583C154.047 26.3142 154.502 25.6162 155.151 25.0644C155.833 24.48 156.661 24.1878 157.635 24.1878ZM163.833 19.7078V15.3739H168.41V19.7078H163.833ZM168.313 48H163.93V24.2365H168.313V48ZM184.369 15.4226H188.752V48H184.369V46.1009C183.947 47.367 182.941 48 181.35 48H179.597C176.675 48 175.215 46.5716 175.215 43.7148V28.5218C175.215 25.6325 176.675 24.1878 179.597 24.1878H181.35C182.941 24.1878 183.947 24.8209 184.369 26.087V15.4226ZM181.058 44.4452H182.762C183.347 44.4452 183.752 44.3154 183.98 44.0557C184.239 43.7959 184.369 43.3577 184.369 42.7409V29.447C184.369 28.8302 184.239 28.3919 183.98 28.1322C183.752 27.8725 183.347 27.7426 182.762 27.7426H181.058C180.474 27.7426 180.084 27.84 179.889 28.0348C179.694 28.2296 179.597 28.6029 179.597 29.1548V43.033C179.597 43.6174 179.694 44.007 179.889 44.2017C180.084 44.3641 180.474 44.4452 181.058 44.4452ZM212.046 17.5165L205.618 32.807L211.997 48H207.225L201.04 32.807L207.322 17.5165H212.046ZM196.366 48V17.5165H200.748V48H196.366ZM225.816 24.1878H226.79V27.9861H225.037C222.992 27.9861 221.969 29.1873 221.969 31.5896V48H217.587V24.2365H221.969V27.1583C222.229 26.3142 222.683 25.6162 223.333 25.0644C224.014 24.48 224.842 24.1878 225.816 24.1878ZM240.974 24.2365H245.357V48H240.974V46.1009C240.552 47.367 239.546 48 237.955 48H236.202C233.28 48 231.819 46.5716 231.819 43.7148V28.5704C231.819 25.6812 233.28 24.2365 236.202 24.2365H237.955C239.546 24.2365 240.552 24.8696 240.974 26.1357V24.2365ZM237.663 44.4452H239.367C239.952 44.4452 240.357 44.3154 240.585 44.0557C240.844 43.7959 240.974 43.3577 240.974 42.7409V29.4957C240.974 28.8789 240.844 28.4406 240.585 28.1809C240.357 27.9212 239.952 27.7913 239.367 27.7913H237.663C237.078 27.7913 236.689 27.8887 236.494 28.0835C236.299 28.2458 236.202 28.6191 236.202 29.2035V43.033C236.202 43.6174 236.299 44.007 236.494 44.2017C236.689 44.3641 237.078 44.4452 237.663 44.4452ZM261.005 19.1235H258.96C258.376 19.1235 257.986 19.2209 257.791 19.4157C257.596 19.578 257.499 19.9513 257.499 20.5357V24.2365H261.005V27.7913H257.499V48H253.116V27.7913H250.73V24.2365H253.116V19.7078C253.116 16.851 254.626 15.4226 257.645 15.4226H261.005V19.1235ZM274.332 27.7913H271.07V42.8383C271.07 43.4226 271.151 43.8122 271.313 44.007C271.508 44.1693 271.897 44.2504 272.482 44.2504H274.332V48H271.216C268.164 48 266.638 46.5716 266.638 43.7148V27.7913H264.398V24.2365H266.638V20.1948H271.07V24.2365H274.332V27.7913Z" fill="#7BCD73"/>
<path d="M97.3913 17.5165H101.774V48H97.3913V34.6087H90.9148V48H86.5322V17.5165H90.9148V31.0539H97.3913V17.5165ZM112.876 54.72H109.954V51.2139H111.951C113.347 51.2139 114.191 50.6783 114.483 49.607L114.97 47.6104H112.584L107.617 24.2365H112.097L115.7 44.153L119.06 24.2365H123.492L118.476 50.2887C117.762 53.2429 115.895 54.72 112.876 54.72ZM136.338 24.1878H138.042C140.996 24.1878 142.473 25.6325 142.473 28.5218V43.7148C142.473 46.5716 140.996 48 138.042 48H136.338C134.747 48 133.74 47.367 133.318 46.1009V48H128.936V15.4226H133.318V26.087C133.74 24.8209 134.747 24.1878 136.338 24.1878ZM138.091 43.033V29.1548C138.091 28.6029 137.993 28.2296 137.798 28.0348C137.604 27.84 137.214 27.7426 136.63 27.7426H134.925C134.341 27.7426 133.919 27.8725 133.659 28.1322C133.432 28.3919 133.318 28.8302 133.318 29.447V42.7409C133.318 43.3577 133.432 43.7959 133.659 44.0557C133.919 44.3154 134.341 44.4452 134.925 44.4452H136.63C137.214 44.4452 137.604 44.3641 137.798 44.2017C137.993 44.007 138.091 43.6174 138.091 43.033ZM157.635 24.1878H158.609V27.9861H156.855C154.81 27.9861 153.788 29.1873 153.788 31.5896V48H149.405V24.2365H153.788V27.1583C154.047 26.3142 154.502 25.6162 155.151 25.0644C155.833 24.48 156.661 24.1878 157.635 24.1878ZM163.833 19.7078V15.3739H168.41V19.7078H163.833ZM168.313 48H163.93V24.2365H168.313V48ZM184.369 15.4226H188.752V48H184.369V46.1009C183.947 47.367 182.941 48 181.35 48H179.597C176.675 48 175.215 46.5716 175.215 43.7148V28.5218C175.215 25.6325 176.675 24.1878 179.597 24.1878H181.35C182.941 24.1878 183.947 24.8209 184.369 26.087V15.4226ZM181.058 44.4452H182.762C183.347 44.4452 183.752 44.3154 183.98 44.0557C184.239 43.7959 184.369 43.3577 184.369 42.7409V29.447C184.369 28.8302 184.239 28.3919 183.98 28.1322C183.752 27.8725 183.347 27.7426 182.762 27.7426H181.058C180.474 27.7426 180.084 27.84 179.889 28.0348C179.694 28.2296 179.597 28.6029 179.597 29.1548V43.033C179.597 43.6174 179.694 44.007 179.889 44.2017C180.084 44.3641 180.474 44.4452 181.058 44.4452ZM212.046 17.5165L205.618 32.807L211.997 48H207.225L201.04 32.807L207.322 17.5165H212.046ZM196.366 48V17.5165H200.748V48H196.366ZM225.816 24.1878H226.79V27.9861H225.037C222.992 27.9861 221.969 29.1873 221.969 31.5896V48H217.587V24.2365H221.969V27.1583C222.229 26.3142 222.683 25.6162 223.333 25.0644C224.014 24.48 224.842 24.1878 225.816 24.1878ZM240.974 24.2365H245.357V48H240.974V46.1009C240.552 47.367 239.546 48 237.955 48H236.202C233.28 48 231.819 46.5716 231.819 43.7148V28.5704C231.819 25.6812 233.28 24.2365 236.202 24.2365H237.955C239.546 24.2365 240.552 24.8696 240.974 26.1357V24.2365ZM237.663 44.4452H239.367C239.952 44.4452 240.357 44.3154 240.585 44.0557C240.844 43.7959 240.974 43.3577 240.974 42.7409V29.4957C240.974 28.8789 240.844 28.4406 240.585 28.1809C240.357 27.9212 239.952 27.7913 239.367 27.7913H237.663C237.078 27.7913 236.689 27.8887 236.494 28.0835C236.299 28.2458 236.202 28.6191 236.202 29.2035V43.033C236.202 43.6174 236.299 44.007 236.494 44.2017C236.689 44.3641 237.078 44.4452 237.663 44.4452ZM261.005 19.1235H258.96C258.376 19.1235 257.986 19.2209 257.791 19.4157C257.596 19.578 257.499 19.9513 257.499 20.5357V24.2365H261.005V27.7913H257.499V48H253.116V27.7913H250.73V24.2365H253.116V19.7078C253.116 16.851 254.626 15.4226 257.645 15.4226H261.005V19.1235ZM274.332 27.7913H271.07V42.8383C271.07 43.4226 271.151 43.8122 271.313 44.007C271.508 44.1693 271.897 44.2504 272.482 44.2504H274.332V48H271.216C268.164 48 266.638 46.5716 266.638 43.7148V27.7913H264.398V24.2365H266.638V20.1948H271.07V24.2365H274.332V27.7913Z" fill="url(#paint3_linear)"/>
<defs>
<linearGradient id="paint0_linear" x1="35" y1="37.5" x2="35.5" y2="58.5" gradientUnits="userSpaceOnUse">
<stop stop-color="#7BCD73"/>
<stop offset="1" stop-color="#4B84C8"/>
</linearGradient>
<linearGradient id="paint1_linear" x1="36" y1="21.5" x2="36.0007" y2="56.1607" gradientUnits="userSpaceOnUse">
<stop stop-color="#7BCD73"/>
<stop offset="1" stop-color="#4B84C8"/>
</linearGradient>
<linearGradient id="paint2_linear" x1="36" y1="13.5" x2="36" y2="31" gradientUnits="userSpaceOnUse">
<stop stop-color="#7BCD73"/>
<stop offset="0.992415" stop-color="#4B84C8"/>
</linearGradient>
<linearGradient id="paint3_linear" x1="184.435" y1="36" x2="256.464" y2="36" gradientUnits="userSpaceOnUse">
<stop stop-color="#4B84C8"/>
<stop offset="1" stop-color="white" stop-opacity="0"/>
</linearGradient>
</defs>
</svg>
