<svg width="226" height="58" viewBox="0 0 226 58" fill="none" xmlns="http://www.w3.org/2000/svg">
<path fill-rule="evenodd" clip-rule="evenodd" d="M29.5182 48.9611C42.9467 48.9611 53.8327 37.4927 53.8327 23.3457C53.8327 14.5215 48.5383 6.02645 41.9559 0.883118C52.5947 5.28393 60.036 15.3874 60.036 27.1478C60.036 42.9526 46.5965 55.765 30.018 55.765C13.4395 55.765 0 42.9526 0 27.1478C0 16.4879 6.11381 7.18931 15.1809 2.26502C9.44096 7.47255 5.2036 15.2713 5.2036 23.3457C5.2036 37.4927 16.0896 48.9611 29.5182 48.9611Z" fill="url(#paint0_linear)"/>
<path fill-rule="evenodd" clip-rule="evenodd" d="M29.0577 39.4235C38.7262 39.4235 46.5642 31.9458 46.5642 21.1495C46.5642 14.8554 43.6204 8.71176 39.4126 4.68243C46.3176 8.32812 51.0306 15.6334 51.0306 24.0511C51.0306 36.1125 41.3541 45.8903 29.4176 45.8903C17.4811 45.8903 7.80469 36.1125 7.80469 24.0511C7.80469 16.3422 11.7575 9.56618 17.7267 5.67961C14.0467 9.6868 11.5512 15.3543 11.5512 21.1495C11.5512 31.9458 19.3891 39.4235 29.0577 39.4235Z" fill="url(#paint1_linear)"/>
<path d="M18.1562 19.4236L36.1131 0L28.9906 14.0448H40.5271L22.169 33.0699L28.9906 19.4236H18.1562Z" fill="url(#paint2_linear)"/>
<path d="M79.9424 14.0911H83.5235V39H79.9424V28.0576H74.6503V39H71.0691V14.0911H74.6503V25.1529H79.9424V14.0911ZM92.5955 44.4911H90.208V41.6262H91.8394C92.9801 41.6262 93.6698 41.1885 93.9085 40.3131L94.3065 38.6817H92.3567L88.2981 19.5822H91.9588L94.9033 35.8565L97.6489 19.5822H101.27L97.1714 40.8702C96.5878 43.2841 95.0625 44.4911 92.5955 44.4911ZM111.766 19.5424H113.159C115.573 19.5424 116.78 20.7229 116.78 23.0838V35.4984C116.78 37.8328 115.573 39 113.159 39H111.766C110.467 39 109.644 38.4827 109.299 37.4482V39H105.718V12.3801H109.299V21.0943C109.644 20.0597 110.467 19.5424 111.766 19.5424ZM113.199 34.9414V23.6011C113.199 23.1501 113.119 22.8451 112.96 22.6859C112.801 22.5267 112.483 22.4471 112.005 22.4471H110.612C110.135 22.4471 109.79 22.5533 109.578 22.7655C109.392 22.9777 109.299 23.3358 109.299 23.8398V34.7026C109.299 35.2066 109.392 35.5648 109.578 35.777C109.79 35.9892 110.135 36.0953 110.612 36.0953H112.005C112.483 36.0953 112.801 36.029 112.96 35.8963C113.119 35.7372 113.199 35.4189 113.199 34.9414ZM129.169 19.5424H129.965V22.6461H128.532C126.861 22.6461 126.025 23.6276 126.025 25.5906V39H122.444V19.5822H126.025V21.9697C126.238 21.28 126.609 20.7096 127.14 20.2587C127.697 19.7812 128.373 19.5424 129.169 19.5424ZM134.233 15.8817V12.3404H137.974V15.8817H134.233ZM137.894 39H134.313V19.5822H137.894V39ZM151.014 12.3801H154.596V39H151.014V37.4482C150.67 38.4827 149.847 39 148.547 39H147.115C144.728 39 143.534 37.8328 143.534 35.4984V23.0838C143.534 20.7229 144.728 19.5424 147.115 19.5424H148.547C149.847 19.5424 150.67 20.0597 151.014 21.0943V12.3801ZM148.309 36.0953H149.701C150.179 36.0953 150.51 35.9892 150.696 35.777C150.908 35.5648 151.014 35.2066 151.014 34.7026V23.8398C151.014 23.3358 150.908 22.9777 150.696 22.7655C150.51 22.5533 150.179 22.4471 149.701 22.4471H148.309C147.831 22.4471 147.513 22.5267 147.354 22.6859C147.195 22.8451 147.115 23.1501 147.115 23.6011V34.9414C147.115 35.4189 147.195 35.7372 147.354 35.8963C147.513 36.029 147.831 36.0953 148.309 36.0953Z" fill="#7BCD73"/>
<path d="M79.9424 14.0911H83.5235V39H79.9424V28.0576H74.6503V39H71.0691V14.0911H74.6503V25.1529H79.9424V14.0911ZM92.5955 44.4911H90.208V41.6262H91.8394C92.9801 41.6262 93.6698 41.1885 93.9085 40.3131L94.3065 38.6817H92.3567L88.2981 19.5822H91.9588L94.9033 35.8565L97.6489 19.5822H101.27L97.1714 40.8702C96.5878 43.2841 95.0625 44.4911 92.5955 44.4911ZM111.766 19.5424H113.159C115.573 19.5424 116.78 20.7229 116.78 23.0838V35.4984C116.78 37.8328 115.573 39 113.159 39H111.766C110.467 39 109.644 38.4827 109.299 37.4482V39H105.718V12.3801H109.299V21.0943C109.644 20.0597 110.467 19.5424 111.766 19.5424ZM113.199 34.9414V23.6011C113.199 23.1501 113.119 22.8451 112.96 22.6859C112.801 22.5267 112.483 22.4471 112.005 22.4471H110.612C110.135 22.4471 109.79 22.5533 109.578 22.7655C109.392 22.9777 109.299 23.3358 109.299 23.8398V34.7026C109.299 35.2066 109.392 35.5648 109.578 35.777C109.79 35.9892 110.135 36.0953 110.612 36.0953H112.005C112.483 36.0953 112.801 36.029 112.96 35.8963C113.119 35.7372 113.199 35.4189 113.199 34.9414ZM129.169 19.5424H129.965V22.6461H128.532C126.861 22.6461 126.025 23.6276 126.025 25.5906V39H122.444V19.5822H126.025V21.9697C126.238 21.28 126.609 20.7096 127.14 20.2587C127.697 19.7812 128.373 19.5424 129.169 19.5424ZM134.233 15.8817V12.3404H137.974V15.8817H134.233ZM137.894 39H134.313V19.5822H137.894V39ZM151.014 12.3801H154.596V39H151.014V37.4482C150.67 38.4827 149.847 39 148.547 39H147.115C144.728 39 143.534 37.8328 143.534 35.4984V23.0838C143.534 20.7229 144.728 19.5424 147.115 19.5424H148.547C149.847 19.5424 150.67 20.0597 151.014 21.0943V12.3801ZM148.309 36.0953H149.701C150.179 36.0953 150.51 35.9892 150.696 35.777C150.908 35.5648 151.014 35.2066 151.014 34.7026V23.8398C151.014 23.3358 150.908 22.9777 150.696 22.7655C150.51 22.5533 150.179 22.4471 149.701 22.4471H148.309C147.831 22.4471 147.513 22.5267 147.354 22.6859C147.195 22.8451 147.115 23.1501 147.115 23.6011V34.9414C147.115 35.4189 147.195 35.7372 147.354 35.8963C147.513 36.029 147.831 36.0953 148.309 36.0953Z" fill="#4B84C8"/>
<path d="M173.629 14.0911L168.377 26.5854L173.59 39H169.69L164.637 26.5854L169.77 14.0911H173.629ZM160.817 39V14.0911H164.398V39H160.817ZM184.882 19.5424H185.678V22.6461H184.245C182.574 22.6461 181.738 23.6276 181.738 25.5906V39H178.157V19.5822H181.738V21.9697C181.951 21.28 182.322 20.7096 182.852 20.2587C183.41 19.7812 184.086 19.5424 184.882 19.5424ZM197.268 19.5822H200.849V39H197.268V37.4482C196.923 38.4827 196.101 39 194.801 39H193.368C190.981 39 189.787 37.8328 189.787 35.4984V23.1236C189.787 20.7627 190.981 19.5822 193.368 19.5822H194.801C196.101 19.5822 196.923 20.0995 197.268 21.1341V19.5822ZM194.562 36.0953H195.955C196.432 36.0953 196.764 35.9892 196.95 35.777C197.162 35.5648 197.268 35.2066 197.268 34.7026V23.8796C197.268 23.3756 197.162 23.0175 196.95 22.8053C196.764 22.593 196.432 22.4869 195.955 22.4869H194.562C194.085 22.4869 193.766 22.5665 193.607 22.7257C193.448 22.8583 193.368 23.1634 193.368 23.6409V34.9414C193.368 35.4189 193.448 35.7372 193.607 35.8963C193.766 36.029 194.085 36.0953 194.562 36.0953ZM213.636 15.4042H211.965C211.487 15.4042 211.169 15.4838 211.01 15.643C210.85 15.7756 210.771 16.0807 210.771 16.5582V19.5822H213.636V22.4869H210.771V39H207.19V22.4869H205.24V19.5822H207.19V15.8817C207.19 13.5473 208.423 12.3801 210.89 12.3801H213.636V15.4042ZM224.526 22.4869H221.86V34.7822C221.86 35.2597 221.926 35.578 222.059 35.7372C222.218 35.8698 222.536 35.9361 223.014 35.9361H224.526V39H221.979C219.485 39 218.239 37.8328 218.239 35.4984V22.4869H216.408V19.5822H218.239V16.2796H221.86V19.5822H224.526V22.4869Z" fill="#68AD61"/>
<defs>
<linearGradient id="paint0_linear" x1="28.5995" y1="30.6424" x2="29.008" y2="47.8021" gradientUnits="userSpaceOnUse">
<stop stop-color="#68AD61"/>
<stop offset="1" stop-color="#4B84C8"/>
</linearGradient>
<linearGradient id="paint1_linear" x1="29.4171" y1="17.5681" x2="29.4176" y2="45.8903" gradientUnits="userSpaceOnUse">
<stop stop-color="#7BCD73"/>
<stop offset="1" stop-color="#4B84C8"/>
</linearGradient>
<linearGradient id="paint2_linear" x1="29.4173" y1="11.0312" x2="29.4173" y2="25.3309" gradientUnits="userSpaceOnUse">
<stop stop-color="#7BCD73"/>
<stop offset="0.992415" stop-color="#4B84C8"/>
</linearGradient>
</defs>
</svg>
