<svg width="412" height="109" viewBox="0 0 412 109" fill="none" xmlns="http://www.w3.org/2000/svg">
<path d="M22.3566 37.0586C32.5833 6.98466 91.0519 -6.50752 99.7906 53.2936C99.4289 43.1923 100.055 32.1117 94.3971 22.1159C85.4447 6.3006 71.7125 4.08391 60.235 4.06069C41.0223 4.02183 24.9494 18.4145 22.3566 37.0586Z" fill="url(#paint0_linear)"/>
<path d="M22.3566 37.0586C32.5833 6.98466 91.0519 -6.50752 99.7906 53.2936C99.4289 43.1923 100.055 32.1117 94.3971 22.1159C85.4447 6.3006 71.7125 4.08391 60.235 4.06069C41.0223 4.02183 24.9494 18.4145 22.3566 37.0586Z" fill="url(#paint1_linear)"/>
<path d="M86.2019 34.3473C99.5512 64.9599 62.0976 111.924 15.1899 70.4232C21.8929 77.9887 28.4562 86.9384 39.1795 91.0542C56.146 97.5663 68.1533 90.5442 77.0257 83.2631C91.8776 71.075 96.0575 50.3846 86.2019 34.3473Z" fill="url(#paint2_linear)"/>
<path d="M45.4643 79.65C14.2121 73.964 -6.7183 17.6532 51.1437 0.202445C41.2058 2.04792 30.1538 3.06034 21.1003 10.1289C6.77596 21.3129 6.60588 35.2218 8.27329 46.5776C11.0644 65.5865 26.6415 79.8313 45.4643 79.65Z" fill="url(#paint3_linear)"/>
<path d="M45.4643 79.65C14.2121 73.964 -6.7183 17.6532 51.1437 0.202445C41.2058 2.04792 30.1538 3.06034 21.1003 10.1289C6.77596 21.3129 6.60588 35.2218 8.27329 46.5776C11.0644 65.5865 26.6415 79.8313 45.4643 79.65Z" fill="url(#paint4_linear)"/>
<ellipse cx="55.2596" cy="47.0836" rx="34.4309" ry="34.9634" fill="url(#paint5_radial)"/>
<path d="M47.6996 15.0973C47.7547 14.7942 47.7954 14.2758 47.8601 13.9709C47.9009 13.9437 47.9176 13.9303 47.9652 13.9184C48.2379 13.8502 47.4031 13.9491 47.1248 13.9884C46.4946 14.0774 45.9091 14.2749 45.2981 14.4028C44.9696 14.4715 44.6225 14.5572 44.3059 14.6654C43.786 14.8431 43.2624 15.0492 42.7652 15.284C42.2546 15.5251 41.8239 15.7902 41.2536 15.9377C40.7484 16.0683 40.2217 16.2256 39.7829 16.4979C39.3616 16.7595 38.8896 16.9243 38.4377 17.1224C38.0046 17.3123 37.5955 17.5453 37.1713 17.7527C36.075 18.2886 35.6367 19.5393 34.7055 20.2739C34.0104 20.8223 33.2622 21.224 32.6687 21.9022C32.2351 22.3977 31.8878 22.9413 31.7233 23.583C31.564 24.2041 31.3327 24.7731 30.8712 25.2346C30.2933 25.8125 29.6016 26.1731 29.0854 26.8132C28.8618 27.0905 28.7179 27.4204 28.4697 27.6799C28.1979 27.964 27.8734 28.1963 27.5301 28.3861C27.0645 28.6434 26.459 28.998 26.4329 29.6117C26.4181 29.9576 26.3974 30.3342 26.4358 30.6797C26.4606 30.9034 26.4636 31.1164 26.6692 30.9656C26.988 30.7319 27.5191 30.8314 27.889 30.8314C28.5944 30.8314 29.3265 30.712 29.8557 31.2866C30.0334 31.4795 30.0098 31.6904 30.2643 31.7768C30.5748 31.8823 30.8766 31.9554 31.1455 32.1562C31.2927 32.2661 31.3933 32.4651 31.4957 32.2904C31.6461 32.0339 31.7428 31.7562 31.9042 31.5026C32.1491 31.1177 32.4045 30.7455 32.6279 30.347C32.7381 30.1503 32.7836 29.9267 32.8905 29.7342C32.9587 29.6114 32.9375 29.4811 33.0539 29.384C33.2637 29.2092 33.3865 28.9756 33.5763 28.7858C33.9408 28.4213 34.3791 28.4087 34.4108 27.8375C34.4446 27.2296 34.675 26.7697 34.8573 26.2063C34.9679 25.8645 35.2046 25.52 35.044 25.1587C34.9466 24.9395 34.9418 24.5066 35.1199 24.3183C35.3601 24.0643 35.7626 23.6742 36.1354 23.688C36.5985 23.7052 37.123 23.8383 37.5536 24.0032C37.8194 24.105 38.061 24.0312 38.3327 23.9769C38.6886 23.9057 39.0334 23.8141 39.3511 23.6326C39.6698 23.4504 39.7765 23.0125 39.9785 22.7221C40.2486 22.3338 40.4011 21.917 40.8101 21.622C40.9348 21.5321 41.1291 21.5208 41.1369 21.3419C41.1509 21.0194 41.2501 20.7234 41.4112 20.4431C41.6457 20.0353 41.9709 19.7648 42.2691 19.4277C42.5936 19.0609 43.0758 19.0147 43.4976 19.2467C43.7595 19.3908 43.8099 19.5403 43.734 19.8333C43.6828 20.0305 43.7 20.2377 43.6523 20.4285C43.6038 20.6223 43.2823 20.8154 43.1387 20.9275C42.7104 21.2621 42.4545 21.5974 42.2925 22.1123C42.2145 22.36 42.2645 22.8513 42.059 23.0169C41.685 23.3182 41.2184 23.5417 40.886 23.8864C40.7008 24.0785 40.7692 24.4375 40.7692 24.686C40.7692 25.224 39.9472 25.2116 39.5612 25.2608C39.3728 25.2849 39.2374 25.3422 39.0826 25.4534C38.668 25.7514 38.1584 25.9445 37.6819 26.1217C37.2991 26.264 37.0925 26.3019 37.0925 26.7315C37.0925 26.8996 37.0653 27.0957 37.1217 27.2568C37.2224 27.5445 37.4749 27.886 37.6469 28.1351C37.8053 28.3645 37.9451 28.2886 38.1401 28.1789C38.2445 28.1201 38.3493 27.9763 38.4611 27.9484C38.5967 27.9145 38.7686 27.9425 38.9075 27.9425C39.2573 27.9425 39.4527 28.0749 39.7421 28.281C40.1517 28.5728 40.5314 28.5728 41.0191 28.5728H41.0202C41.3015 28.5728 41.6142 28.6158 41.8839 28.5203C42.4579 28.317 43.0015 28.2334 43.5998 28.1935C44.1514 28.1567 44.7829 28.0428 45.2572 27.7266C45.668 27.4527 45.9167 26.822 45.9167 26.3405C45.9167 26.2076 46.0722 26.0947 46.1676 26.0225C46.7032 25.6167 47.4585 25.5222 48.079 25.3134C48.9404 25.0234 49.1665 24.4642 49.4621 23.6909C49.5631 23.4267 49.7938 22.6795 49.4534 22.5325C49.1526 22.4026 49.0297 22.1238 48.8581 21.8613C48.7772 21.7376 48.7442 21.719 48.5838 21.6804C48.1897 21.5857 47.801 21.4886 47.4107 21.3886C47.1232 21.3149 46.8444 21.2796 46.9672 20.9042C47.0506 20.6491 47.0722 20.4562 47.0722 20.1922C47.0722 19.4358 46.3695 19.1121 46.0772 18.491C45.9412 18.2019 46.0309 17.9362 45.94 17.6506C45.8463 17.3559 45.0763 17.7055 45.0763 17.2683C45.0763 17.1282 45.1955 16.8817 45.2572 16.7547C45.3822 16.4973 45.4204 16.175 45.7095 16.0486C46.2914 15.794 47.0213 15.8905 47.5771 15.5C47.6623 15.4401 47.6803 15.2033 47.6996 15.0973Z" fill="#8DB431"/>
<path d="M69.6926 20.673C70.6807 19.1908 69.5009 16.6457 69.0818 15.2103C69.3302 15.3759 69.6039 15.6398 69.7737 15.8852C69.8862 16.0476 70.0395 16.191 70.141 16.3635C70.3761 16.7631 71.0788 17.02 71.4651 17.2263C71.9682 17.495 72.4011 17.812 72.9215 18.0549C73.9259 18.5236 74.746 19.2787 75.6934 19.8829C76.2495 20.2375 76.8275 20.5162 77.4217 20.8026L77.4275 20.8055C77.9711 21.0676 78.4017 21.4353 78.9181 21.7451C79.7063 22.218 80.1117 22.9279 80.6137 23.6671C80.9425 24.1512 81.3732 24.5493 81.6644 25.0637C81.8784 25.4418 82.0594 25.8064 82.3393 26.1443C82.7265 26.6119 83.0035 27.1693 83.3472 27.6734C84.1174 28.8029 84.1521 30.155 84.6883 31.3807C84.9899 32.07 85.3163 32.8699 85.7647 33.4735C86.1492 33.9911 86.5381 34.4937 86.8751 35.0453C87.1945 35.5678 87.4019 36.1556 87.6051 36.7311L87.6055 36.7323C87.9375 37.6731 88.0327 38.7507 88.4597 39.658C88.8139 40.4106 89.0493 41.1798 89.4891 41.8918C89.768 42.3434 89.6991 42.9537 89.6855 43.4678C89.6663 44.1973 89.6855 44.9129 89.6855 45.6504C89.6855 45.8547 89.6363 46.4382 89.3011 46.2227C89.1095 46.0995 89.1371 46.0427 88.8911 46.039C88.6561 46.0356 88.3339 46.0614 88.1479 45.8853C87.9636 45.7106 88.2246 45.355 87.9002 45.3471C87.5542 45.3387 87.3723 45.354 87.1143 45.6119C86.9112 45.815 86.9179 45.9449 86.9179 46.2312C86.9179 46.4219 86.9647 46.6729 86.8239 46.8249C86.7447 46.9104 86.6157 46.9136 86.5505 46.9787C86.4433 47.0859 86.6138 47.8205 86.6103 47.9781C86.5991 48.4831 86.3002 48.621 85.903 48.8043L85.8885 48.811C85.528 48.9774 85.5995 49.5728 85.1881 49.7677C84.8483 49.9286 84.4915 50.2561 84.1075 50.2674C83.7066 50.2792 83.1621 50.1439 82.792 50.3016C82.0624 50.6123 81.4753 51.2233 80.7461 51.506C80.436 51.6263 79.983 51.6221 79.7083 51.4206C79.551 51.3053 79.4831 51.1226 79.3409 51.0063C79.1135 50.8202 78.0591 50.7916 77.876 50.7543C76.8158 50.5384 75.7513 50.2561 74.8221 49.678C74.1953 49.288 73.9969 48.7498 73.5066 48.2856C73.2426 48.0357 72.6713 48.0473 72.3705 48.008C71.0664 47.8376 69.7479 47.6446 68.518 47.1495C67.8217 46.8693 67.0929 46.4669 66.7968 45.7401C66.6186 45.3027 66.5821 44.7219 66.4679 44.2537C66.3533 43.784 66.2688 43.3343 66.1945 42.8571C66.0292 41.7944 65.5972 40.9909 64.8705 40.1877C64.5446 39.8274 64.1749 39.6313 63.7216 39.4658C63.0815 39.2322 62.1535 39.2481 61.6416 38.7611C61.0008 38.1517 61.2898 36.6074 61.5049 35.861C61.7185 35.1195 61.5962 34.331 61.6245 33.5675C61.6351 33.2805 61.7782 33.0411 61.7782 32.7389C61.7782 32.5667 61.8226 32.4046 61.8594 32.2392C61.8866 32.1168 62.1666 31.7918 62.2779 31.7053C62.4259 31.5902 62.7555 31.6481 62.8375 31.5088C62.9956 31.2399 62.9895 30.9275 63.145 30.6631C63.2301 30.5184 63.6079 30.5701 63.7557 30.5435L63.78 30.5392C64.1162 30.4789 64.4539 30.4183 64.768 30.2787C65.1246 30.1202 65.1103 29.6085 65.1994 29.2878C65.3381 28.7884 65.3751 28.6699 65.887 28.4336C66.3055 28.2404 67.4115 27.8562 67.463 27.3146C67.4988 26.9395 67.0559 27.1503 66.7412 26.9985C66.2893 26.7805 66.1441 26.6162 65.7204 26.943C65.4328 27.1649 65.0407 27.2733 64.7765 27.5111C64.6682 27.6086 64.14 28.4237 64.0889 27.9638C64.0224 27.3651 64.0846 26.73 64.0846 26.1272C64.0846 25.7672 63.9278 25.1166 64.3921 25.068C65.2309 24.9801 66.7242 24.9672 66.9249 23.8636C66.9712 23.6091 66.9123 22.9808 67.2452 22.9068C67.8198 22.7791 68.4501 23.3808 68.9878 23.1887C69.2521 23.0943 69.1587 22.5602 69.1587 22.343C69.1587 21.7352 69.3535 21.1817 69.6926 20.673Z" fill="#8DB431"/>
<path d="M49.8498 67.9484C49.8498 66.9158 49.7028 65.9512 49.5507 64.9249C49.8379 65.3352 49.427 64.1996 49.5698 63.9427C50.0344 63.1064 51.0502 62.6015 51.0502 61.5642C51.0502 60.8258 50.9514 59.9871 51.4948 59.4035C53.221 57.5494 56.4467 58.181 58.6437 58.6566C59.2666 58.7915 59.617 58.9848 60.1242 59.2746C61.9187 60.3 64.0238 60.6564 65.6993 61.9376C66.4282 62.4951 67.1991 63.5762 66.5395 64.5073C66.3568 64.7653 66.0376 64.8975 66.0149 65.2454C66.0008 65.4626 66.0149 65.6857 66.0149 65.9033C66.0149 66.3198 65.9044 66.8564 66.1883 67.1971C66.6423 67.7418 67.3754 68.3707 67.3754 69.1399C67.3754 69.5028 67.4645 69.9994 67.1975 70.2869C66.7691 70.7484 66.516 71.2892 66.3706 71.9052C66.2917 72.2395 66.4596 72.6306 66.095 72.8033C65.6434 73.0172 65.3221 73.2555 64.9924 73.6658C64.124 74.7464 64.643 77.0241 62.9473 77.258C62.4355 77.3286 62.2929 77.6062 61.8003 77.8271C60.7351 78.3046 59.5365 78.2456 58.3948 78.2272C58.2107 78.2242 57.9244 78.2082 57.8613 77.9871C57.8303 77.879 57.8927 77.7251 57.8035 77.6359C57.735 77.5674 57.5469 77.5661 57.47 77.5514C57.0684 77.4748 56.6734 77.3754 56.283 77.2536C55.6663 77.0612 54.8689 76.8543 54.3846 76.3955C53.9037 75.9399 52.7966 76.0485 52.1928 75.8976C51.4848 75.7206 51.4921 75.3821 51.6104 74.7906C51.7532 74.0764 51.8221 73.5974 51.5926 72.8833C51.5186 72.6529 51.343 72.5548 51.3748 72.3009C51.4383 71.7926 51.8505 71.4757 51.8505 70.9049C51.8505 70.7195 51.9216 70.4032 51.7616 70.2692C51.5151 70.0628 51.2301 69.9598 51.068 69.6645C50.8127 69.1995 50.356 69.1918 50.0277 68.7842C49.818 68.5239 49.8498 68.2655 49.8498 67.9484Z" fill="#8DB431"/>
<path d="M67.9356 74.4661C68.5889 72.9962 70.5531 72.6162 70.8965 70.865C70.693 70.865 70.2651 70.8016 70.3897 70.6205C70.658 70.2302 71.1043 70.0706 71.5545 70.0647C72.2251 70.056 72.3187 70.2955 72.3369 70.9895C72.3514 71.5376 72.5528 72.6498 72.1591 73.0435C71.6647 73.5378 71.1148 73.7055 70.5141 74.0304C70.1809 74.2107 69.9628 74.1994 69.6783 74.4839C69.303 74.8592 69.0915 75.1063 68.558 75.1063C68.0497 75.1063 67.6714 75.0606 67.9356 74.4661Z" fill="#8DB431"/>
<path d="M23.904 52.0769C23.5001 51.646 23.3568 51.2735 22.781 51.343C22.4853 51.5401 22.0364 51.8336 21.9301 52.1791C21.79 52.6344 22.0922 53.0927 22.179 53.5173C22.29 54.0599 22.3415 54.5943 22.4058 55.14C22.4614 55.6131 22.6692 56.0852 22.7392 56.5672C22.7911 56.9249 22.8512 57.3171 22.9615 57.6608C23.1729 58.3198 23.5344 58.907 23.9262 59.4703C24.377 60.1183 24.6526 60.8489 25.1222 61.4843C25.3656 61.8136 25.657 62.0749 25.8913 62.4045C26.3115 62.9959 26.6015 63.6408 26.9627 64.2629C27.4516 65.1048 27.8827 66.4636 29.0034 66.4636C29.3889 66.4636 29.133 65.6151 29.1234 65.4233C29.1123 65.2014 28.9976 64.9447 28.9234 64.7386C28.7697 64.3119 28.8449 63.8756 28.6744 63.4538C28.4615 62.9272 28.2635 61.8391 27.683 61.5198C26.9804 61.1334 26.9351 60.1664 26.5982 59.4925C26.4493 59.1948 26.3645 58.8653 26.1269 58.6211C25.736 58.2194 25.5787 57.7825 25.2822 57.323C24.7581 56.5105 24.3785 55.6145 24.3175 54.6377C24.3033 54.4116 24.2419 54.2124 24.2419 53.9797C24.2419 53.6781 24.4127 53.4284 24.4019 53.1172C24.3916 52.8181 24.1035 52.2896 23.904 52.0769Z" fill="#8DB431"/>
<path d="M51.2075 80.2574C51.0751 80.6548 51.207 81.1837 51.31 81.6108C51.5958 81.5705 51.9532 81.5799 52.1 81.5962C52.4204 81.6318 52.6905 81.8412 53.0126 81.8619C53.4158 81.888 53.8041 81.9522 54.211 81.9522C54.5903 81.9522 56.2418 82.1404 56.2418 81.5009C56.2418 81.2509 56.1515 80.9641 56.1515 80.6886C56.1515 79.7811 55.987 78.6665 56.2919 77.7954C56.6911 76.6547 56.8736 75.5742 56.8736 74.3507V69.8229V68.0328C56.8736 67.3837 56.6028 66.7374 56.6028 66.0873C56.6028 65.3934 56.5125 64.7286 56.5125 64.0315C56.5125 63.5838 56.5393 62.9256 57.1443 62.9083C57.6105 62.895 57.9501 63.0888 58.3878 63.0888C59.0825 63.0888 59.248 63.2915 59.5411 63.851C59.6091 63.9808 59.7436 64.4555 59.852 64.5129C60.0549 64.6203 60.4786 64.5329 60.6944 64.5329C61.3254 64.5329 61.5004 65.2788 61.8877 65.6661C62.173 65.9514 62.9008 65.7965 63.2817 65.7965C63.9993 65.7965 64.5594 65.6732 65.0818 66.2478C65.5042 66.7125 65.6317 67.0686 65.8539 67.6367C65.9625 67.9142 66.3747 67.9396 66.6211 68.098C66.9335 68.2988 67.2514 68.4957 67.634 68.5042C68.0413 68.5132 68.6895 68.5593 68.8976 68.1431C69.0083 67.9217 69.058 67.7651 69.058 67.5114C69.058 67.0139 69.7047 67.6136 69.9606 67.737C70.48 67.9874 70.7705 68.3521 71.2442 67.9626C71.4536 67.7904 71.8235 67.2073 72.0515 67.1503C72.5368 67.029 74.2928 67.3958 74.2928 66.6991C74.2928 66.3068 74.2026 65.9343 74.2026 65.5458C74.2026 65.3013 74.195 65.1673 74.022 64.9842C73.8556 64.808 74.001 64.6463 74.017 64.4377C74.0378 64.1675 73.981 63.8774 74.022 63.6103C74.0606 63.3595 74.7461 63.3596 74.9577 63.3596H74.9647C75.5693 63.3596 76.4976 63.656 77.0506 63.4298C77.4772 63.2553 77.6127 62.1969 78.1638 62.1863C79.0179 62.1699 80.6341 62.1681 81.2375 61.4643C81.5563 61.0922 81.3327 59.9675 81.3327 59.4837V56.2294C81.3327 55.8276 81.4553 55.4075 80.9918 55.2768C80.4051 55.1113 79.1087 54.8865 78.9911 54.0633C78.9534 53.7997 78.8978 53.224 79.0061 52.9803C79.2398 52.4546 78.9398 52.2031 79.7382 52.4387C80.1696 52.566 80.3575 52.8705 80.6307 52.4187C80.7647 52.1971 81.0239 51.8855 81.0569 51.6214C81.1318 51.0229 80.4661 50.4085 79.9839 50.1372C79.5445 49.89 78.8099 49.592 78.6451 49.0792C78.4873 48.5882 78.5935 47.9889 78.0635 47.6552C77.7288 47.4445 77.2934 47.2886 76.9102 47.2039C76.7321 47.1646 76.02 47.0626 75.9174 46.883C75.7786 46.6402 75.5777 46.4693 75.4461 46.2111C75.3495 46.0217 75.2697 45.6942 75.1452 45.5342C74.9107 45.2327 74.4424 44.5207 74.0922 44.4963C73.8779 44.4813 73.5522 44.4496 73.3501 44.5414C73.1016 44.6544 72.5395 44.4963 72.2571 44.4963C71.6463 44.4963 71.3541 44.4176 70.9985 43.8645C70.814 43.5775 70.8059 43.1127 70.8731 42.7764C70.9434 42.4252 71.2611 41.6812 70.9534 41.3373C70.6991 41.0531 70.9037 40.3445 70.3416 40.3445C69.8475 40.3445 69.3326 40.5158 68.8274 40.525C68.599 40.5292 68.1219 40.6164 67.9398 40.4749C67.6039 40.2136 67.9085 39.583 67.9699 39.3066C68.1149 38.6543 68.027 38.4769 68.6368 38.1082C69.1301 37.81 69.1178 36.7136 68.8574 36.263C68.6478 35.9001 68.3234 35.7389 68.0451 35.4507C67.8678 35.267 67.8656 34.9031 67.6089 34.8389C67.2456 34.7481 66.2228 34.8215 66.0796 34.4278C65.9897 34.1805 66.0293 33.9633 65.9843 33.7158C65.9072 33.2918 65.2277 32.9265 64.8914 32.7458L64.8862 32.743C64.0928 32.3166 63.8183 32.4882 63.1914 32.9235C62.8268 33.1767 62.0945 32.9436 61.647 32.9436C60.8884 32.9436 60.1236 32.8533 59.3556 32.8533C58.8605 32.8533 58.8887 32.8492 58.9945 32.4472C59.0781 32.1296 58.973 31.9118 58.8792 31.6098C58.8119 31.3928 58.7904 30.6723 58.8993 30.4866C59.1763 30.014 59.3104 29.9345 59.3104 29.3785C59.3104 28.9581 59.3959 28.6778 59.0246 28.4208C58.7139 28.2056 58.5266 27.8893 58.1321 27.8893C57.7483 27.8893 57.3836 27.9721 57.0039 27.9795C56.4644 27.9901 55.8208 28.0667 55.4495 27.5985C54.8593 26.8543 54.1642 27.0761 53.2784 26.7661C52.8649 26.6214 52.2302 26.62 51.9496 26.9516C51.4944 27.4896 50.9336 27.9689 50.2548 28.1952C49.8428 28.3325 49.4013 28.4082 49.0414 28.6615C48.9277 28.7415 48.8645 28.8882 48.8358 29.0175C48.7578 29.3684 48.3167 29.3334 48.0586 29.3334C47.5837 29.3334 46.7888 29.1344 46.4741 29.554L46.4582 29.5753C46.2292 29.8807 45.927 30.2838 45.5816 30.4566C45.2251 30.6348 44.7458 30.7899 44.3732 30.8727C43.7066 31.0209 43.6211 31.9625 43.0846 32.2917C42.8096 32.4605 42.1458 32.6728 41.8009 32.6728C40.9994 32.6728 40.2538 34.446 40.051 35.0546C39.8576 35.6346 40.38 35.5616 40.2114 36.0674C39.9828 36.7532 39.4205 37.2175 39.0732 37.8174C38.9596 38.0136 38.7245 38.0759 38.6019 38.2336C38.3729 38.5279 39.0514 38.639 39.2036 38.6999C39.493 38.8157 39.7779 38.8919 40.0861 38.9004C40.4177 38.9096 40.6166 39.1607 40.8984 39.3016C41.1547 39.4298 42.0852 39.647 41.485 40.1139C41.2461 40.2997 40.5584 40.164 40.2866 40.164H37.8698C37.3411 40.164 37.1165 40.2158 36.8369 40.6353C36.5426 41.0767 36.1747 41.4524 35.804 41.8287C35.4777 42.1599 35.2866 42.5751 34.9265 42.8717C34.7714 42.9994 33.7194 43.384 33.8986 43.6639C33.9799 43.791 34.2752 43.721 34.3047 43.8244C34.5005 44.5097 32.923 45.087 32.5247 45.4189C32.137 45.7419 32.307 46.6483 32.3241 47.0936C32.3349 47.3751 32.8599 47.7547 33.0411 47.9661C33.2473 48.2066 33.6202 48.1676 33.8183 48.4224C34.047 48.7163 34.1292 48.7764 34.1292 49.1845C34.1292 49.2887 34.195 49.6408 34.039 49.6408C33.8592 49.6408 33.5204 49.5934 33.3621 49.5054C33.1872 49.4083 33.0029 49.5404 32.8155 49.5506C32.3438 49.5761 31.6566 49.7398 31.3514 50.1322C31.122 50.4271 31.3907 50.4429 31.4165 50.6888C31.4674 51.1719 31.4216 51.6825 31.4216 52.168C31.4216 52.6395 31.2974 53.2903 31.4266 53.7424C31.4633 53.8709 31.5388 54.1059 31.6522 54.1987C31.7793 54.3026 32.2255 54.2815 32.2339 54.4243C32.2658 54.9671 31.7683 54.8179 31.4216 55.1464C30.8137 55.7222 29.0334 54.87 29.3958 56.3197C29.5796 57.0546 29.9633 57.2582 30.4488 57.7437C30.7133 58.0082 31.1793 57.7667 31.5118 57.9242C31.7001 58.0134 31.9957 57.9839 32.1436 58.1248C32.5524 58.5141 32.6865 59.1105 32.7754 59.6441C32.8267 59.9521 33.0315 60.1626 33.0462 60.4915C33.0586 60.7705 33.118 60.9032 33.2718 61.1082C33.4018 61.2816 33.6955 61.2067 33.7682 61.3339C33.873 61.5172 34.2695 61.6072 34.4501 61.6949C35.0646 61.9934 35.783 62.3668 36.4759 62.3668C36.7442 62.3668 37.1355 62.2922 37.3784 62.4069C37.7485 62.5817 37.9773 63.1643 38.1857 63.49C38.3396 63.7304 38.424 63.8503 38.662 63.9914C38.7973 64.0715 39.0967 64.0183 39.1835 64.1268C39.4935 64.5143 39.8757 65.4355 40.4471 65.4355C40.7581 65.4355 41.0607 65.255 41.3898 65.255C41.5952 65.255 41.7094 65.2356 41.8912 65.1447C42.6381 64.7712 44.5549 64.5632 45.0451 65.3904C45.3105 65.8382 45.3673 65.9194 45.8875 65.8366C46.508 65.7379 47.1099 65.6376 47.7377 65.616C48.0841 65.604 48.5379 64.9787 48.7105 64.7335C48.9799 64.3506 49.2812 64.1768 49.6983 63.9914C50.1319 63.7987 49.9928 63.4635 50.1144 63.129C50.2969 62.6272 51.0785 62.443 51.5485 62.5674C51.9288 62.668 52.3434 63.188 52.4711 63.5201C52.5323 63.6791 52.7597 63.7984 52.9224 63.8109C53.1709 63.83 53.2294 64.0477 53.3937 64.212C53.6903 64.5086 53.7848 65.3732 53.8099 65.7614C53.8549 66.4588 54.1659 67.0689 54.1659 67.742C54.1659 68.1879 54.1896 68.6408 54.1609 69.0858C54.1393 69.4209 53.9854 69.7153 53.9854 70.0586V71.618V71.6182C53.9854 72.1412 53.9854 72.5857 53.8249 73.0871C53.7446 73.3383 53.6244 73.6522 53.6244 73.9195C53.6244 74.4268 53.3536 74.7539 53.3536 75.2733V76.5168C53.3536 77.6091 52.9425 77.9407 52.2254 78.6579C51.9749 78.9084 51.6343 79.0867 51.5084 79.4301C51.4089 79.7014 51.2976 79.9872 51.2075 80.2574Z" fill="#236532"/>
<path d="M142.286 59.4578H135.981V46.0533H126.644V59.4578H120.318V28.1305H126.644V40.8034H135.981V28.1305H142.286V59.4578ZM157.55 42.202L162.262 28.1305H169.147L160.756 48.0974V59.4578H154.344V48.0974L145.931 28.1305H152.816L157.55 42.202ZM173.352 59.4578V28.1305H183.034C186.305 28.1305 188.786 28.862 190.479 30.3251C192.186 31.7739 193.039 33.904 193.039 36.7154C193.039 38.3076 192.688 39.6774 191.985 40.825C191.282 41.9725 190.321 42.8116 189.102 43.3423C190.508 43.744 191.591 44.5544 192.351 45.7736C193.111 46.9785 193.491 48.4703 193.491 50.249C193.491 53.2899 192.652 55.5849 190.974 57.1341C189.31 58.6832 186.893 59.4578 183.723 59.4578H173.352ZM179.678 45.8382V54.2079H183.723C184.856 54.2079 185.717 53.8565 186.305 53.1536C186.893 52.4508 187.187 51.4539 187.187 50.1629C187.187 47.3515 186.169 45.9099 184.132 45.8382H179.678ZM179.678 41.2338H182.97C185.451 41.2338 186.692 39.95 186.692 37.3824C186.692 35.9623 186.405 34.9439 185.832 34.3271C185.258 33.7103 184.325 33.4019 183.034 33.4019H179.678V41.2338ZM208.906 48.0113H205.765V59.4578H199.439V28.1305H209.53C212.7 28.1305 215.146 28.9553 216.867 30.6048C218.603 32.2401 219.471 34.571 219.471 37.5975C219.471 41.7573 217.957 44.6691 214.931 46.3331L220.417 59.1566V59.4578H213.618L208.906 48.0113ZM205.765 42.7399H209.358C210.62 42.7399 211.567 42.3239 212.198 41.4919C212.829 40.6457 213.145 39.5196 213.145 38.1139C213.145 34.9726 211.918 33.4019 209.466 33.4019H205.765V42.7399ZM231.744 59.4578H225.418V28.1305H231.744V59.4578ZM238.381 59.4578V28.1305H246.664C250.322 28.1305 253.234 29.2924 255.4 31.6161C257.58 33.9398 258.692 37.1242 258.735 41.1692V46.247C258.735 50.3637 257.645 53.5983 255.464 55.9507C253.298 58.2888 250.308 59.4578 246.492 59.4578H238.381ZM244.706 33.4019V54.2079H246.6C248.708 54.2079 250.193 53.6557 251.053 52.5512C251.914 51.4323 252.366 49.5103 252.409 46.7849V41.3413C252.409 38.4152 252 36.3783 251.183 35.2308C250.365 34.0689 248.974 33.4593 247.008 33.4019H244.706ZM273.44 47.3658L270.944 50.5072V59.4578H264.618V28.1305H270.944V41.7932L272.945 38.4152L278.776 28.1305H286.521L277.549 41.9008L286.672 59.4578H279.163L273.44 47.3658ZM299.828 48.0113H296.686V59.4578H290.361V28.1305H300.452C303.622 28.1305 306.067 28.9553 307.789 30.6048C309.524 32.2401 310.392 34.571 310.392 37.5975C310.392 41.7573 308.879 44.6691 305.852 46.3331L311.339 59.1566V59.4578H304.54L299.828 48.0113ZM296.686 42.7399H300.28C301.542 42.7399 302.489 42.3239 303.12 41.4919C303.751 40.6457 304.066 39.5196 304.066 38.1139C304.066 34.9726 302.84 33.4019 300.387 33.4019H296.686V42.7399ZM331.014 53.0461H322.386L320.708 59.4578H314.016L323.806 28.1305H329.594L339.448 59.4578H332.692L331.014 53.0461ZM323.763 47.7746H329.615L326.689 36.6078L323.763 47.7746ZM359.876 46.6773H350.044V59.4578H343.718V28.1305H361.06V33.4019H350.044V41.4274H359.876V46.6773ZM386.716 33.4019H378.971V59.4578H372.623V33.4019H365.007V28.1305H386.716V33.4019Z" fill="#A1CE54"/>
<defs>
<linearGradient id="paint0_linear" x1="41.7849" y1="10.9543" x2="89.9275" y2="21.5616" gradientUnits="userSpaceOnUse">
<stop stop-color="#207639"/>
<stop offset="0.519337" stop-color="#A0CC43"/>
<stop offset="0.983425" stop-color="#A1CE54"/>
</linearGradient>
<linearGradient id="paint1_linear" x1="41.7849" y1="10.9543" x2="89.9275" y2="21.5616" gradientUnits="userSpaceOnUse">
<stop stop-color="#207639"/>
<stop offset="0.519337" stop-color="#A0CC43"/>
<stop offset="0.983425" stop-color="#A1CE54"/>
</linearGradient>
<linearGradient id="paint2_linear" x1="86.8805" y1="66.2098" x2="32.3647" y2="83.6442" gradientUnits="userSpaceOnUse">
<stop stop-color="#A1CE54"/>
<stop offset="0.153833" stop-color="#A0CC43"/>
<stop offset="1" stop-color="#207639"/>
</linearGradient>
<linearGradient id="paint3_linear" x1="17.809" y1="63.8113" x2="21.2104" y2="14.6314" gradientUnits="userSpaceOnUse">
<stop stop-color="#207639"/>
<stop offset="0.519337" stop-color="#A0CC43"/>
<stop offset="0.983425" stop-color="#A1CE54"/>
</linearGradient>
<linearGradient id="paint4_linear" x1="17.809" y1="63.8113" x2="21.2104" y2="14.6314" gradientUnits="userSpaceOnUse">
<stop stop-color="#207639"/>
<stop offset="0.519337" stop-color="#A0CC43"/>
<stop offset="0.983425" stop-color="#A1CE54"/>
</linearGradient>
<radialGradient id="paint5_radial" cx="0" cy="0" r="1" gradientUnits="userSpaceOnUse" gradientTransform="translate(55.2596 47.0836) rotate(90) scale(34.9634 34.4309)">
<stop stop-color="#BAD531"/>
<stop offset="1" stop-color="#98CA3C"/>
</radialGradient>
</defs>
</svg>
