<svg width="247" height="169" viewBox="0 0 247 169" fill="none" xmlns="http://www.w3.org/2000/svg">
<rect width="246.531" height="168.154" rx="13" fill="#58C84E"/>
<rect x="70.5" y="58.5" width="105.303" height="51.1513" fill="white" stroke="#233F61" stroke-width="3"/>
<mask id="path-3-inside-1" fill="white">
<path fill-rule="evenodd" clip-rule="evenodd" d="M173.568 68.1374C173.263 68.1811 172.95 68.2038 172.633 68.2038C169.024 68.2038 166.098 65.2777 166.098 61.6683C166.098 61.3512 166.12 61.0394 166.164 60.7344H80.1356C80.1793 61.0394 80.2018 61.3512 80.2018 61.6683C80.2018 65.2777 77.2758 68.2038 73.6663 68.2038C73.3499 68.2038 73.0388 68.1813 72.7344 68.1378V101.881C73.0388 101.837 73.3499 101.815 73.6663 101.815C76.9588 101.815 79.6827 104.249 80.1357 107.417H166.164C166.617 104.249 169.341 101.815 172.633 101.815C172.95 101.815 173.263 101.837 173.568 101.881V68.1374Z"/>
</mask>
<path fill-rule="evenodd" clip-rule="evenodd" d="M173.568 68.1374C173.263 68.1811 172.95 68.2038 172.633 68.2038C169.024 68.2038 166.098 65.2777 166.098 61.6683C166.098 61.3512 166.12 61.0394 166.164 60.7344H80.1356C80.1793 61.0394 80.2018 61.3512 80.2018 61.6683C80.2018 65.2777 77.2758 68.2038 73.6663 68.2038C73.3499 68.2038 73.0388 68.1813 72.7344 68.1378V101.881C73.0388 101.837 73.3499 101.815 73.6663 101.815C76.9588 101.815 79.6827 104.249 80.1357 107.417H166.164C166.617 104.249 169.341 101.815 172.633 101.815C172.95 101.815 173.263 101.837 173.568 101.881V68.1374Z" fill="white"/>
<path d="M173.568 68.1374H175.568V65.8306L173.284 66.1576L173.568 68.1374ZM166.164 60.7344L168.144 61.0176L168.47 58.7344H166.164V60.7344ZM80.1356 60.7344V58.7344H77.8291L78.1558 61.0176L80.1356 60.7344ZM72.7344 68.1378L73.0171 66.1579L70.7344 65.832V68.1378H72.7344ZM72.7344 101.881H70.7344V104.186L73.0171 103.86L72.7344 101.881ZM80.1357 107.417L78.1558 107.7L78.4014 109.417H80.1357V107.417ZM166.164 107.417V109.417H167.898L168.144 107.7L166.164 107.417ZM173.568 101.881L173.284 103.861L175.568 104.188V101.881H173.568ZM172.633 70.2038C173.046 70.2038 173.452 70.1743 173.851 70.1172L173.284 66.1576C173.073 66.1879 172.855 66.2038 172.633 66.2038V70.2038ZM164.098 61.6683C164.098 66.3823 167.919 70.2038 172.633 70.2038V66.2038C170.128 66.2038 168.098 64.1731 168.098 61.6683H164.098ZM164.184 60.4511C164.127 60.8497 164.098 61.2561 164.098 61.6683H168.098C168.098 61.4462 168.113 61.2291 168.144 61.0176L164.184 60.4511ZM80.1356 62.7344H166.164V58.7344H80.1356V62.7344ZM82.2018 61.6683C82.2018 61.2561 82.1725 60.8497 82.1155 60.4511L78.1558 61.0176C78.186 61.2291 78.2018 61.4463 78.2018 61.6683H82.2018ZM73.6663 70.2038C78.3804 70.2038 82.2018 66.3823 82.2018 61.6683H78.2018C78.2018 64.1731 76.1712 66.2038 73.6663 66.2038V70.2038ZM72.4517 70.1177C72.8494 70.1745 73.2551 70.2038 73.6663 70.2038V66.2038C73.4448 66.2038 73.2281 66.188 73.0171 66.1579L72.4517 70.1177ZM74.7344 101.881V68.1378H70.7344V101.881H74.7344ZM73.0171 103.86C73.2281 103.83 73.4448 103.815 73.6663 103.815V99.8146C73.2551 99.8146 72.8494 99.8438 72.4517 99.9006L73.0171 103.86ZM73.6663 103.815C75.9495 103.815 77.8417 105.504 78.1558 107.7L82.1155 107.133C81.5236 102.995 77.9681 99.8146 73.6663 99.8146V103.815ZM166.164 105.417H80.1357V109.417H166.164V105.417ZM172.633 99.8146C168.331 99.8146 164.776 102.995 164.184 107.133L168.144 107.7C168.458 105.504 170.35 103.815 172.633 103.815V99.8146ZM173.851 99.9011C173.452 99.844 173.046 99.8146 172.633 99.8146V103.815C172.855 103.815 173.073 103.83 173.284 103.861L173.851 99.9011ZM171.568 68.1374V101.881H175.568V68.1374H171.568Z" fill="#233F61" mask="url(#path-3-inside-1)"/>
<circle cx="122.217" cy="84.0757" r="18.1065" stroke="#233F61" stroke-width="3"/>
</svg>
