<svg width="248" height="169" viewBox="0 0 248 169" fill="none" xmlns="http://www.w3.org/2000/svg">
<rect x="0.59375" width="246.531" height="168.154" rx="13" fill="#58C84E"/>
<circle cx="123.452" cy="84.4512" r="47.9512" fill="black" stroke="black"/>
<path d="M113.115 57.9649C106.109 56.1867 95.6729 48.9207 95.6729 48.9207C95.6729 48.9207 98.4723 45.6906 106.009 44.3986C113.546 43.1065 120.544 39.2329 129.912 40.5225C137.43 41.5575 142.401 45.2599 148 47.6286C153.599 49.9974 142.893 52.5724 138.956 54.7348C130.042 59.6308 122.973 60.4667 113.115 57.9649Z" fill="white"/>
<path d="M110.547 69.8537C104.715 61.371 92.0915 62.7561 85.9493 70.1427C83.7792 72.7525 83.2205 74.7817 82.3947 78.0738C80.3241 86.3288 83.0141 91.8202 86.8869 99.3987C91.026 107.499 102.002 122.38 102.865 116.347C103.264 113.555 98.8204 112.732 103.204 109.132C107.588 105.533 99.2826 100.271 99.2826 100.271C97.1788 95.3215 104.257 85.2764 110.062 86.3168C117.516 87.6526 114.838 76.0937 110.547 69.8537Z" fill="white"/>
<path d="M137.833 70.2984C138.831 66.9887 144.882 61.3524 148.645 56.6716C154.982 48.7907 163.504 63.1315 163.504 63.1315C163.504 63.1315 166.643 79.1319 166.088 87.0342C165.387 96.99 163.874 104.952 157.043 112.229C153.45 116.056 144.75 124.771 139.601 125.795C137.127 126.288 140.288 115.455 137.833 114.873C133.951 113.954 131.226 118.438 129.435 114.873C127.256 110.537 128.839 106.738 131.373 102.599C134.674 97.2073 152.212 96.2481 147.353 92.2033C144.611 89.9207 136.541 93.5549 136.541 93.5549C136.541 93.5549 133.89 97.5979 131.373 97.431C127.867 97.1987 127.714 92.5205 128.143 89.0328C128.754 84.0625 134.433 79.283 134.433 79.283C134.433 79.283 150.107 85.8027 150.107 78.0506C150.107 70.2984 150.411 68.9582 148.645 63.132C148.645 63.132 144.115 74.5272 142.355 74.8205C139.892 75.2311 137.112 72.6894 137.833 70.2984Z" fill="white"/>
</svg>
