<svg width="247" height="169" viewBox="0 0 247 169" fill="none" xmlns="http://www.w3.org/2000/svg">
<rect width="246.531" height="168.154" rx="13" fill="#58C84E"/>
<path d="M99.2775 50.2387C95.0154 60.8051 92.4282 75.1133 92.4282 75.1133C92.4282 75.6995 82.5081 116.282 82.5081 116.282C82.5081 116.282 87.635 134.499 94.5538 136.131C97.3121 136.781 107.028 137.012 110.404 130.931C125.547 103.663 126.727 100.121 142.961 71.4907C148.217 62.2217 136.997 47.9037 127.318 43.4501C118.21 39.2596 103.028 40.9409 99.2775 50.2387Z" fill="white"/>
<path d="M92.4282 75.1133C92.4282 75.1133 95.0154 60.8052 99.2775 50.2387C103.028 40.9409 118.21 39.2596 127.318 43.4501C136.997 47.9037 148.217 62.2217 142.961 71.4907C126.727 100.121 125.547 103.663 110.404 130.931C107.028 137.012 97.3121 136.781 94.5538 136.131C85.9151 134.094 82.6923 116.744 82.6923 116.744" stroke="#233F61" stroke-width="2.07126"/>
<path d="M91.7497 105.907C91.7497 105.907 101.966 107.444 106.561 97.9265C112.721 85.1674 105.77 90.8189 101.568 80.9282C100.975 79.5311 101.264 79.016 101.957 73.8577C102.649 68.6995 104.299 59.6233 107.649 54.6993C109.637 51.7773 113.775 52.0566 123.361 55.681C130.675 58.4467 135.003 63.0649 129.203 73.9909C116.609 97.7194 117.917 95.4263 105.372 119.568" stroke="#233F61" stroke-width="2.07126"/>
<path d="M149.478 36.9753C149.478 36.9753 170.853 36.9753 170.853 74.0262C170.853 108.94 154.465 113.927 154.465 113.927" stroke="white" stroke-width="4" stroke-linecap="round"/>
<path d="M170.854 27C170.854 27 192.174 34.1252 192.174 72.9706C192.174 114.64 175.828 122.477 175.828 122.477" stroke="white" stroke-width="6" stroke-linecap="round"/>
</svg>
